<?xml version="1.0" standalone="no"?>
<!DOCTYPE svg PUBLIC "-//W3C//DTD SVG 20010904//EN"
 "http://www.w3.org/TR/2001/REC-SVG-20010904/DTD/svg10.dtd">
<svg version="1.0" xmlns="http://www.w3.org/2000/svg"
 width="700.000000pt" height="700.000000pt" viewBox="0 0 700.000000 700.000000"
 preserveAspectRatio="xMidYMid meet">
<metadata>
Created by potrace 1.14, written by Peter Selinger 2001-2017
</metadata>
<g transform="translate(0.000000,700.000000) scale(0.100000,-0.100000)"
fill="#000000" stroke="none">
<path d="M3280 6994 c-19 -2 -84 -9 -145 -14 -578 -56 -1180 -283 -1660 -625
-237 -169 -531 -446 -709 -670 -416 -521 -673 -1147 -748 -1820 -17 -155 -17
-575 0 -730 52 -469 198 -931 418 -1327 290 -523 731 -983 1239 -1294 439
-269 920 -432 1460 -496 145 -17 576 -17 730 0 822 91 1556 447 2131 1034 203
206 348 390 487 618 274 449 433 916 499 1465 16 136 16 592 0 730 -86 725
-352 1347 -803 1885 -122 145 -351 370 -494 484 -510 407 -1117 661 -1775 742
-117 15 -553 27 -630 18z m605 -1208 c179 -28 413 -90 422 -111 3 -10 -176
-386 -193 -404 -2 -2 -38 6 -81 17 -175 47 -258 56 -493 56 -233 0 -308 -8
-492 -55 -42 -10 -79 -19 -82 -19 -8 0 -208 401 -203 406 12 12 136 49 247 74
110 25 198 40 320 54 78 9 460 -3 555 -18z m-1442 -121 c17 -11 186 -328 552
-1038 290 -562 531 -1025 535 -1030 3 -4 242 448 531 1004 346 667 536 1024
560 1050 27 30 44 39 68 39 48 0 88 -26 111 -70 20 -39 20 -56 20 -1652 l0
-1613 -84 -81 c-85 -81 -235 -190 -356 -256 -67 -37 -231 -108 -249 -108 -8 0
-12 196 -13 622 l-3 622 -266 -519 c-288 -562 -292 -569 -344 -530 -18 14
-111 187 -288 535 l-262 515 -3 -623 -2 -623 -23 7 c-12 4 -61 24 -108 44
-171 74 -364 202 -503 333 l-66 62 0 1609 c0 1599 0 1610 20 1652 34 70 109
91 173 49z m-453 -762 l0 -328 -66 -100 c-226 -348 -338 -773 -306 -1164 45
-547 265 -992 656 -1328 373 -320 782 -475 1256 -475 537 0 1017 203 1391 589
208 214 342 436 445 736 49 145 66 177 106 207 92 68 209 65 290 -8 88 -79 98
-161 42 -335 -220 -680 -738 -1230 -1400 -1487 -266 -102 -509 -150 -804 -157
-413 -10 -749 62 -1105 237 -383 188 -702 464 -937 811 -286 421 -437 977
-399 1467 40 517 206 953 511 1337 68 85 298 325 312 325 4 0 8 -147 8 -327z
m3288 150 c239 -258 416 -558 523 -886 43 -130 49 -203 23 -265 -64 -154 -276
-185 -383 -55 -21 25 -46 83 -77 176 -53 160 -130 321 -214 452 l-60 92 0 332
0 333 51 -43 c28 -23 89 -84 137 -136z"/>
</g>
</svg>
