<?xml version="1.0" standalone="no"?>
<!DOCTYPE svg PUBLIC "-//W3C//DTD SVG 20010904//EN"
 "http://www.w3.org/TR/2001/REC-SVG-20010904/DTD/svg10.dtd">
<svg version="1.0" xmlns="http://www.w3.org/2000/svg"
 width="616.000000pt" height="616.000000pt" viewBox="0 0 616.000000 616.000000"
 preserveAspectRatio="xMidYMid meet">
<metadata>
Created by potrace 1.11, written by Peter Selinger 2001-2013
</metadata>
<g transform="translate(0.000000,616.000000) scale(0.100000,-0.100000)"
fill="#000000" stroke="none">
<path d="M710 6054 c-112 -17 -174 -30 -233 -50 -262 -89 -416 -286 -462 -592
-22 -145 -22 -4529 0 -4672 28 -187 91 -325 195 -429 79 -79 151 -123 264
-162 180 -62 54 -60 2653 -56 2244 2 2372 4 2443 21 343 82 522 277 575 626
22 142 22 4528 0 4670 -45 300 -193 497 -442 587 -170 61 32 57 -2583 59
-1312 1 -2396 0 -2410 -2z m819 -1137 c13 -6 32 -23 42 -37 10 -14 210 -594
445 -1290 234 -696 429 -1270 433 -1277 3 -6 172 430 375 970 203 540 373 986
377 992 5 5 9 -124 9 -292 l0 -302 -325 -871 c-179 -480 -332 -884 -339 -899
-15 -28 -53 -51 -86 -51 -11 0 -33 12 -49 28 -24 22 -52 91 -151 372 -294 830
-693 1946 -701 1960 -5 8 -9 -630 -9 -1468 l0 -1483 -25 -24 c-34 -35 -106
-35 -140 0 l-25 24 0 1806 0 1806 25 24 c19 20 34 25 72 25 26 0 59 -6 72 -13z
m2761 -18 c190 -48 334 -153 410 -299 23 -44 53 -124 68 -178 26 -96 26 -100
30 -523 l3 -427 -27 -21 c-34 -27 -93 -28 -125 -2 l-24 19 -5 409 -5 408 -31
85 c-57 160 -147 260 -284 316 -87 36 -260 45 -374 20 -212 -48 -361 -195
-411 -407 -22 -97 -23 -2375 0 -2464 49 -193 183 -332 366 -380 85 -23 272
-20 355 6 188 58 301 167 360 349 16 49 19 108 24 508 l5 454 24 19 c34 28 96
25 126 -6 l25 -24 0 -445 c0 -397 -2 -456 -19 -543 -32 -165 -71 -248 -163
-344 -70 -74 -148 -123 -255 -158 -226 -76 -547 -53 -748 52 -122 64 -218 194
-267 362 l-23 80 0 1305 0 1305 33 94 c80 231 217 360 449 425 141 39 341 41
483 5z"/>
</g>
</svg>
