<?xml version="1.0" standalone="no"?>
<!DOCTYPE svg PUBLIC "-//W3C//DTD SVG 20010904//EN"
 "http://www.w3.org/TR/2001/REC-SVG-20010904/DTD/svg10.dtd">
<svg version="1.0" xmlns="http://www.w3.org/2000/svg"
 width="628.000000pt" height="628.000000pt" viewBox="0 0 628.000000 628.000000"
 preserveAspectRatio="xMidYMid meet">
<metadata>
Created by potrace 1.11, written by Peter Selinger 2001-2013
</metadata>
<g transform="translate(0.000000,628.000000) scale(0.100000,-0.100000)"
fill="#000000" stroke="none">
<path d="M0 3140 l0 -3040 3140 0 3140 0 0 3040 0 3040 -3140 0 -3140 0 0
-3040z m6055 0 l0 -2825 -2917 -3 -2918 -2 0 2830 0 2830 2918 -2 2917 -3 0
-2825z"/>
<path d="M310 3140 l0 -2740 2830 0 2830 0 0 2740 0 2740 -2830 0 -2830 0 0
-2740z m1260 1885 c34 -18 31 -9 200 -510 71 -209 237 -702 370 -1095 133
-393 266 -787 296 -875 30 -88 57 -167 60 -175 3 -8 54 127 114 300 605 1761
803 2327 820 2344 20 21 109 33 154 22 29 -7 51 -37 61 -82 5 -27 0 -39 -45
-90 -57 -67 -120 -183 -144 -264 -9 -30 -23 -95 -31 -145 -11 -64 -73 -259
-216 -675 -110 -322 -231 -675 -269 -785 -382 -1120 -362 -1068 -429 -1068
-50 0 -75 34 -119 161 -327 953 -796 2310 -803 2322 -5 8 -9 -670 -9 -1536 0
-1513 0 -1552 -19 -1575 -16 -20 -28 -24 -76 -24 -48 0 -60 4 -76 24 -19 23
-19 66 -19 1861 l0 1839 26 20 c32 25 111 28 154 6z m2908 -14 c256 -75 411
-249 475 -536 17 -79 20 -136 24 -473 3 -211 2 -394 -1 -408 -12 -45 -41 -64
-100 -64 -47 0 -57 4 -75 26 -20 26 -21 39 -21 294 0 521 -37 707 -165 835
-110 111 -327 159 -544 121 -221 -39 -331 -145 -393 -378 -22 -83 -22 -84 -26
-1213 -3 -1142 -1 -1216 33 -1351 64 -248 234 -364 532 -364 362 1 522 167
553 573 5 73 10 275 10 450 l0 318 25 24 c34 35 103 35 142 1 l28 -24 0 -449
c0 -393 -2 -459 -18 -538 -66 -322 -242 -504 -542 -560 -123 -23 -366 -17
-478 13 -111 30 -200 78 -276 148 -102 95 -160 206 -199 384 -15 68 -17 192
-17 1325 l0 1250 27 99 c42 150 89 238 178 327 101 102 189 148 350 184 100
22 381 14 478 -14z"/>
</g>
</svg>
