<?xml version="1.0" standalone="no"?>
<!DOCTYPE svg PUBLIC "-//W3C//DTD SVG 20010904//EN"
 "http://www.w3.org/TR/2001/REC-SVG-20010904/DTD/svg10.dtd">
<svg version="1.0" xmlns="http://www.w3.org/2000/svg"
 width="700.000000pt" height="700.000000pt" viewBox="0 0 700.000000 700.000000"
 preserveAspectRatio="xMidYMid meet">
<metadata>
Created by potrace 1.11, written by Peter Selinger 2001-2013
</metadata>
<g transform="translate(0.000000,700.000000) scale(0.100000,-0.100000)"
fill="#000000" stroke="none">
<path d="M705 6994 c-357 -44 -617 -276 -687 -614 -19 -96 -19 -5664 0 -5760
63 -305 297 -539 602 -602 96 -19 5664 -19 5760 0 305 63 539 297 602 602 19
96 19 5664 0 5760 -61 295 -272 514 -574 597 -59 16 -251 18 -2868 19 -1543 1
-2818 0 -2835 -2z m4090 -1385 c674 -386 1225 -705 1225 -709 0 -12 -2345
-1352 -2451 -1400 -23 -10 -83 22 -728 394 -387 223 -705 406 -707 406 -2 0
-3 -372 -2 -826 l3 -826 700 -398 c385 -219 702 -397 705 -396 3 2 330 184
726 405 397 220 729 404 738 407 15 6 16 -44 16 -568 l0 -575 -717 -419 c-395
-230 -724 -419 -733 -419 -8 0 -563 317 -1232 705 l-1217 705 0 1405 0 1405
1207 707 c676 396 1215 705 1225 703 9 -2 568 -319 1242 -706z"/>
</g>
</svg>
