<?xml version="1.0" encoding="UTF-8"?>
<svg id="OBJECTS" xmlns="http://www.w3.org/2000/svg" version="1.1" viewBox="0 0 750 500">
  <defs>
    <style>
      .cls-1 {
        fill: none;
        stroke: #000;
        stroke-linecap: round;
        stroke-linejoin: round;
      }
    </style>
  </defs>
  <path class="cls-1" d="M22.8-16.8c5.3,0,78.7,116.5,50.7,262-28,145.6-137.1,283.7,165,421.4"/>
  <path class="cls-1" d="M53.1-37.8c4,0,65.7,133.2,38,279.1-27.7,145.9-143.4,290.5,202.7,425.4"/>
  <path class="cls-1" d="M83.5-58.8c2.7,0,52.7,150,25.3,296.1-27.4,146.2-149.7,297.3,240.4,429.4"/>
  <path class="cls-1" d="M113.8-79.9c1.3,0,39.7,166.7,12.7,313.2-27,146.5-156,304.1,278.1,433.3"/>
  <path class="cls-1" d="M144.2-100.9s26.7,183.5,0,330.2c-26.7,146.8-162.2,310.9,315.8,437.3"/>
  <path class="cls-1" d="M160-100.9s13.1,182.1,0,328.2c-13.1,146.1-115.2,292.2,338.1,417.3"/>
  <path class="cls-1" d="M175.7-100.9s-.4,180.8,0,326.2c.4,145.4-68.2,273.5,360.4,397.2"/>
  <path class="cls-1" d="M191.5-100.9s-14,179.4,0,324.2c14,144.8-21.2,254.7,382.6,377.2"/>
  <path class="cls-1" d="M207.3-100.9s-27.6,178.1,0,322.2c27.6,144.1,25.8,236,404.9,357.2"/>
  <path class="cls-1" d="M223.1-100.9s-41.1,176.8,0,320.2c41.1,143.4,72.8,217.3,427.2,337.1"/>
  <path class="cls-1" d="M238.9-100.9s-54.7,175.4,0,318.2c54.7,142.8,119.8,198.6,449.5,317.1"/>
  <path class="cls-1" d="M254.7-100.9s-68.3,174.1,0,316.2c68.3,142.1,166.8,179.8,471.8,297"/>
  <path class="cls-1" d="M270.5-100.9s-81.8,172.8,0,314.2c81.8,141.4,213.8,161.1,494,277"/>
  <path class="cls-1" d="M286.3-100.9s-95.4,171.4,0,312.2c95.4,140.8,260.8,142.4,516.3,257"/>
  <path class="cls-1" d="M302-100.9s-109,170.1,0,310.2c109,140.1,307.8,123.6,538.6,236.9"/>
  <path class="cls-1" d="M317.8-100.9s-122.5,168.8,0,308.2,354.8,104.9,560.9,216.9"/>
  <path class="cls-1" d="M333.6-100.9s-136.1,167.4,0,306.2c136.1,138.8,401.9,86.2,583.2,196.9"/>
  <path class="cls-1" d="M349.4-100.9s-149.7,166.1,0,304.2c149.7,138.1,448.9,67.5,605.5,176.8"/>
  <path class="cls-1" d="M365.2-100.9s-163.2,164.8,0,302.2c163.2,137.4,495.9,48.7,627.7,156.8"/>
  <path class="cls-1" d="M381-100.9s-176.8,163.4,0,300.2c176.8,136.8,542.9,30,650,136.8"/>
  <path class="cls-1" d="M392.8-100.9s-168.1,158.8,10.2,287.5c178.3,128.7,525.4,20.7,625.4,120.3"/>
  <path class="cls-1" d="M404.6-100.9s-159.4,154.1,20.5,274.8c179.9,120.7,507.9,11.3,600.7,103.8"/>
  <path class="cls-1" d="M416.3-100.9s-150.8,149.4,30.7,262.2c181.4,112.7,490.3,2,576,87.4"/>
  <path class="cls-1" d="M428.1-100.9s-142.1,144.8,40.9,249.5c183,104.7,472.8-7.3,551.4,70.9"/>
  <path class="cls-1" d="M439.9-100.9s-133.4,140.1,51.1,236.8c184.6,96.7,455.3-16.7,526.7,54.5"/>
  <path class="cls-1" d="M451.7-100.9s-124.7,135.4,61.4,224.1c186.1,88.7,437.8-26,502.1,38"/>
  <path class="cls-1" d="M463.5-100.9s-116.1,130.8,71.6,211.5c187.7,80.7,420.3-35.4,477.4,21.6"/>
  <path class="cls-1" d="M475.3-100.9s-107.4,126.1,81.8,198.8c189.2,72.7,402.8-44.7,452.8,5.1"/>
  <path class="cls-1" d="M487.1-100.9s-98.7,121.4,92.1,186.1c190.8,64.7,385.3-54,428.1-11.3"/>
  <path class="cls-1" d="M498.8-100.9s-90.1,116.7,102.3,173.4c192.3,56.7,367.7-63.4,403.5-27.8"/>
  <path class="cls-1" d="M510.6-100.9s-81.4,112.1,112.5,160.8c193.9,48.7,350.2-72.7,378.8-44.3"/>
  <path class="cls-1" d="M522.4-100.9S449.7,6.5,645.2,47.2c195.5,40.7,332.7-82.1,354.1-60.7"/>
  <path class="cls-1" d="M534.2-100.9S470.2,1.9,667.2,34.5c197,32.7,315.2-91.4,329.5-77.2"/>
  <path class="cls-1" d="M546-100.9S490.6-2.8,689.2,21.9c198.6,24.7,297.7-100.7,304.8-93.6"/>
  <path class="cls-1" d="M557.8-100.9S511.1-7.5,711.2,9.2c200.1,16.7,280.2-110.1,280.2-110.1"/>
</svg>