<?xml version="1.0" encoding="utf-8"?>
<!-- Generator: Adobe Illustrator 25.0.1, SVG Export Plug-In . SVG Version: 6.00 Build 0)  -->
<svg version="1.1" id="Layer_1" xmlns:serif="http://www.serif.com/"
	 xmlns="http://www.w3.org/2000/svg" xmlns:xlink="http://www.w3.org/1999/xlink" x="0px" y="0px" viewBox="0 0 1129 1129"
	 style="enable-background:new 0 0 1129 1129;" xml:space="preserve">
<style type="text/css">
	.st0{fill-rule:evenodd;clip-rule:evenodd;fill:#FFFFFF;}
</style>
<path class="st0" d="M991.1,0c76.1,0,137.9,61.8,137.9,137.9v853.1c0,76.1-61.8,137.9-137.9,137.9H137.9C61.8,1129,0,1067.2,0,991.1
	V137.9C0,61.8,61.8,0,137.9,0L991.1,0L991.1,0z M353.8,933.4V435.6H188.4v497.7H353.8z M950.4,933.4V647.9
	c0-152.9-81.6-224-190.5-224c-87.8,0-127.1,48.3-149.1,82.2v-70.5H445.4c2.2,46.7,0,497.7,0,497.7h165.4v-278
	c0-14.9,1.1-29.8,5.5-40.4c11.9-29.7,39.2-60.5,84.9-60.5c59.8,0,83.8,45.7,83.8,112.5v266.3H950.4L950.4,933.4z M272.2,195.6
	c-56.6,0-93.6,37.2-93.6,86c0,47.8,35.9,86,91.4,86h1.1c57.7,0,93.6-38.2,93.6-86C363.6,232.9,328.9,195.7,272.2,195.6L272.2,195.6z
	"/>
</svg>
