<?xml version="1.0" encoding="UTF-8"?>
<svg id="Layer_1" data-name="Layer 1" xmlns="http://www.w3.org/2000/svg" version="1.1" viewBox="0 0 779 790.9">
  <defs>
    <style>
      .cls-1 {
        fill: #fff;
        stroke-width: 0px;
      }
    </style>
  </defs>
  <g id="RomW5Q.tif">
    <g>
      <path class="cls-1" d="M395.5,368.6c1.3-2.3,2.3-4,3.2-5.7,56.7-109,113.4-218.1,170.1-327.1,1.6-3.1,3.5-6.1,5.5-8.9,6.8-9.7,21.8-8,28-.6,4.1,4.9,6.4,10.4,6.9,16.8.2,2.3.1,4.7.1,7,0,172.7,0,345.5,0,518.2,0,4.4-1.3,7.4-4.4,10.4-30.5,30.1-65.7,52.9-105.9,68-1.8.7-3.7,1.1-6.2,1.9v-206.5c-.3,0-.6-.2-.9-.3-.9,1.5-1.8,3-2.6,4.5-27.7,54-55.3,108.1-83,162.1-.6,1.2-1.3,2.3-1.8,3.6-2.8,6.9-13.4,6.9-17,1.3-1.2-1.8-2.2-3.7-3.2-5.6-27.5-53.9-54.9-107.9-82.4-161.9-.9-1.7-1.8-3.4-3.6-4.8v207.1c-2.2-.7-3.8-1.1-5.3-1.7-41.3-15.5-77.3-39.1-108.4-70.4-2.4-2.4-2.8-5-2.8-8.1,0-46.3,0-92.5,0-138.8,0-125.8,0-251.6,0-377.4,0-4.1.2-8.4,1.1-12.4.8-3.5,2.3-7,4.3-10,7.7-11.6,23.2-11.9,31.6-.8,1.9,2.5,3.3,5.4,4.7,8.2,53.5,103.4,107,206.8,160.4,310.2,3.7,7.1,7.3,14.1,11.3,21.8Z"/>
      <path class="cls-1" d="M138.7,95.4c.2,3.1.4,4.9.4,6.7,0,32.8,0,65.6,0,98.4,0,3.5-1,6.3-3,9.2-28.6,39.7-46.9,83.7-55.3,131.8-4.3,24.4-5.8,49-3.9,73.6,8,102.7,54.2,184,138.2,243.5,38,27,80.5,43.6,126.4,51.7,24.5,4.4,49.3,5.6,74.1,4,119.8-7.8,221.1-80.1,269.6-182.9,7.7-16.3,13.8-33.1,18.7-50.5,4.1-14.8,13.6-24.5,28.7-28.2,20.1-4.8,40.8,8.2,45.4,28.3,1.5,6.7,1.2,13.1-.7,19.7-16.9,60.9-46.6,114.8-89.4,161.3-51.1,55.6-113.2,93.7-185.9,114.3-19.5,5.5-39.4,9.4-59.6,11.8-20.7,2.5-41.5,3.5-62.3,2.6-86.6-4-164.3-32.6-231.8-87-72-58-118.2-132.5-138.9-222.6C1.8,447.6-1.3,413.6.5,379.4c5.8-111.3,50.3-204.4,132.7-279.4,1.4-1.3,3-2.5,5.6-4.6Z"/>
      <path class="cls-1" d="M300.6,90.4c-11.6-23.1-22.7-45.4-33.8-67.6,7.2-5.7,59.2-17.7,83.5-20.4,74.9-8.3,141.5,6.4,174.8,19.7-11.3,22.6-22.5,45.1-34,68.1-63.6-19-126.9-19-190.5.1Z"/>
      <path class="cls-1" d="M654.8,96.6c1.3,1,2.6,2,3.8,3.1,58.1,52.1,97.7,115.6,119,190.7,6.2,22-7.2,44.1-28.7,48.4-20.4,4.1-38.5-8.2-44.2-26.2-3.9-12.4-7.7-24.8-12.4-36.8-9.1-23.3-21.3-45.1-35.9-65.4-1.9-2.7-2.9-5.3-2.9-8.7,0-33.3,0-66.5,0-99.8s0-3.2,0-4.8c.4-.2.9-.3,1.3-.5Z"/>
    </g>
  </g>
</svg>