<?xml version="1.0" encoding="UTF-8"?>
<svg id="Layer_1" data-name="Layer 1" xmlns="http://www.w3.org/2000/svg" version="1.1" viewBox="0 0 362.5 369.5">
  <defs>
    <style>
      .cls-1 {
        fill: #fff;
        stroke-width: 0px;
      }
    </style>
  </defs>
  <g>
    <path class="cls-1" d="M69.3,292.9c-26-27.9-42-65.3-42-106.4s10.8-64.9,29-90.5v-41.1C21.8,88.2.3,134.9.3,186.5c0,100.9,82.1,183,183,183s82.1-14.3,114.4-40.1c31.8-25.5,54.4-61.2,63.7-100.7.8-3.5.2-7.1-1.7-10.2-1.9-3.1-4.9-5.2-8.4-6-7.2-1.7-14.5,2.8-16.2,10-6.3,26.5-19.6,51.1-38.3,71V13.9c0-4-1-7.3-3-9.9-2-2.6-4.5-3.9-7.3-3.9-3.8-.6-7,1.4-9.6,6l-21.8,41.9-72.1,138.8L111.3,48.1,89.6,6.1c-1.2-2.1-2.7-3.7-4.5-4.6-1.8-.9-3.5-1.4-5.2-1.4-3.1,0-5.6,1.4-7.7,4.1-2,2.8-3,6-3,9.6v29.6M235.1,333.8c-16.4,5.8-33.8,8.7-51.8,8.7s-36-3.2-52.4-9.1v-19.5c0,0,0-.2,0-.2v-.3s0-91.2,0-91.2l47.4,93.2c.5,1,1.2,1.9,2.1,2.5.9.6,1.8.8,2.7.7,1.1.2,2,0,2.8-.7.8-.6,1.4-1.4,1.8-2.5l47.4-92.6v110.9Z"/>
    <path class="cls-1" d="M335.8,153.7c.8,3.5,2.8,6.5,5.9,8.5,3,2,6.6,2.6,10.2,1.9,3.5-.8,6.5-2.8,8.5-5.9s2.6-6.6,1.9-10.2c-7.6-35.7-26.1-68.5-52.4-93.7v41c12.6,17.4,21.5,37.3,26,58.4Z"/>
    <path class="cls-1" d="M183.3,30.5c20.7,0,41.1,4.2,60,12l12.5-24c-22.7-9.8-47.4-15-72.5-15s-50.3,5.4-72.6,15.1l12.4,24c18.5-7.8,38.9-12.1,60.2-12.1Z"/>
  </g>
  <path class="cls-1" d="M351.1,212.3c-7.2-1.7-14.5,2.8-16.2,10-7.9,33.6-27.2,64.1-54.3,85.8-27.9,22.4-61.6,34.2-97.5,34.2-86,0-156-70-156-156H0c0,100.9,82.1,183,183,183s82.1-14.3,114.4-40.1c31.8-25.5,54.4-61.2,63.7-100.7.8-3.5.2-7.1-1.7-10.2-1.9-3.1-4.9-5.2-8.4-6Z"/>
</svg>