<?xml version="1.0" encoding="utf-8"?>
<!-- Generator: Adobe Illustrator 20.1.0, SVG Export Plug-In . SVG Version: 6.00 Build 0)  -->
<svg version="1.1" id="Layer_1" xmlns="http://www.w3.org/2000/svg" xmlns:xlink="http://www.w3.org/1999/xlink" x="0px" y="0px"
	 viewBox="0 0 100 100" style="enable-background:new 0 0 100 100;" xml:space="preserve">
<style type="text/css">
	.st0{fill:#4B2D87;}
	.st1{fill:#ED6D23;}
	.st2{fill:#FFFFFF;}
	.st3{fill:url(#SVGID_1_);}
</style>
<path class="st0" d="M89,100H11c-6.1,0-11-4.9-11-11V11C0,4.9,4.9,0,11,0h78c6.1,0,11,4.9,11,11v78C100,95.1,95.1,100,89,100z"/>
<g>
	<polygon class="st0" points="30.3,62.1 30.4,38.5 50.7,50.2 71.2,38.6 86.1,30 50.7,9.7 16,30 16,30 16,70 51,90.3 71.7,78.2 
		71.7,61.8 50.5,73.6 	"/>
	<g>
		<polygon class="st1" points="30.4,38.5 50.7,50.2 71.2,38.6 50.4,26.6 		"/>
		<g>
			<polyline class="st2" points="16,30 16,70 51,90.3 71.7,78.2 71.7,61.8 50.5,73.6 30.3,62.1 30.4,38.5 50.4,26.6 71.2,38.6 
				86.1,30 50.7,9.7 16,30 			"/>
			
				<linearGradient id="SVGID_1_" gradientUnits="userSpaceOnUse" x1="23.2203" y1="47.4117" x2="23.2203" y2="80.0325" gradientTransform="matrix(1 0 0 -1 0 110.055)">
				<stop  offset="0" style="stop-color:#FFFFFF"/>
				<stop  offset="0.2551" style="stop-color:#FFFFFF"/>
				<stop  offset="1" style="stop-color:#C9C9C9"/>
			</linearGradient>
			<polygon class="st3" points="16,30 30.4,38.5 30.4,62.6 16,54.2 			"/>
		</g>
	</g>
</g>
</svg>
