<?xml version="1.0" encoding="utf-8"?>
<!-- Generator: Adobe Illustrator 24.0.1, SVG Export Plug-In . SVG Version: 6.00 Build 0)  -->
<svg version="1.1" id="Layer_1" xmlns="http://www.w3.org/2000/svg" xmlns:xlink="http://www.w3.org/1999/xlink" x="0px" y="0px"
	 viewBox="0 0 156.7 151.8" style="enable-background:new 0 0 156.7 151.8;" xml:space="preserve">
<style type="text/css">
	.st0{fill:#FFFFFF;}
	.st1{fill:#2EC0F9;}
</style>
<g>
	<rect width="156.7" height="151.8"/>
	<g>
		<path class="st0" d="M151,146.4H5.6V5.4H151L151,146.4L151,146.4z M7.6,144.4H149V7.4H7.6V144.4z"/>
	</g>
	<path d="M63.7,103.4c-0.4,1.1-1.1,1.7-2,1.7c-1,0-1.7-0.7-2.1-1.7L38.4,41.8v77.5c0,1.3-0.7,2.1-2,2.1h-0.7c-1.2,0-2-0.8-2-2.1
		V29.7c0-1.3,0.7-2.1,2-2.1h1.2c1.1,0,2,0.7,2.3,1.7L61.4,95L84,29.3c0.4-1.1,1.2-1.7,2.3-1.7h1.5c1.2,0,2,0.8,2,2.1v63.1
		c0,1.3-0.7,2.1-2,2.1h-1c-1.2,0-2-0.8-2-2.1v-51L63.7,103.4z"/>
	<path class="st0" d="M64.7,104.4c-0.4,1.1-1.1,1.7-2,1.7c-1,0-1.7-0.7-2.1-1.7L39.4,42.8v77.5c0,1.3-0.7,2.1-2,2.1h-0.7
		c-1.2,0-2-0.8-2-2.1V30.7c0-1.3,0.7-2.1,2-2.1h1.2c1.1,0,2,0.7,2.3,1.7L62.4,96L85,30.3c0.4-1.1,1.2-1.7,2.3-1.7h1.5
		c1.2,0,2,0.8,2,2.1v63.1c0,1.3-0.7,2.1-2,2.1h-1c-1.2,0-2-0.8-2-2.1v-51L64.7,104.4z"/>
	<g>
		<path d="M123.1,83.6v16.8c0,13.9-6.1,20.9-19,20.9h-0.2c-12.9,0-19-6.9-19-20.9v-52c0-13.3,6.1-20.9,19-20.9h0.2
			c12.9,0,19,7.6,19,20.9v14.4c0,1.4-0.7,2.3-1.9,2.3h-1c-1.2,0-1.9-0.8-1.9-2.3V51c0-12.6-3.7-18.1-14.2-18.1S89.9,38.4,89.9,51
			v46.9c0,12.6,3.7,18.1,14.2,18.1s14.2-5.5,14.2-18.1V83.6c0-1.4,0.7-2.3,1.9-2.3h1C122.4,81.3,123.1,82.2,123.1,83.6z"/>
	</g>
	<g>
		<path class="st1" d="M124.1,84.6v16.8c0,13.9-6.1,20.9-19,20.9h-0.2c-12.9,0-19-6.9-19-20.9v-52c0-13.3,6.1-20.9,19-20.9h0.2
			c12.9,0,19,7.6,19,20.9v14.4c0,1.4-0.7,2.3-1.9,2.3h-1c-1.2,0-1.9-0.8-1.9-2.3V52c0-12.6-3.7-18.1-14.2-18.1S90.9,39.4,90.9,52
			v46.9c0,12.6,3.7,18.1,14.2,18.1s14.2-5.5,14.2-18.1V84.6c0-1.4,0.7-2.3,1.9-2.3h1C123.4,82.3,124.1,83.2,124.1,84.6z"/>
	</g>
</g>
</svg>
