<?xml version="1.0" encoding="utf-8"?>
<!-- Generator: Adobe Illustrator 25.0.1, SVG Export Plug-In . SVG Version: 6.00 Build 0)  -->
<svg version="1.1" id="Layer_1" xmlns="http://www.w3.org/2000/svg" xmlns:xlink="http://www.w3.org/1999/xlink" x="0px" y="0px"
	 viewBox="0 0 236.8 70.8" style="enable-background:new 0 0 236.8 70.8;" xml:space="preserve">
<style type="text/css">
	.st0{fill:#2F3E46;}
	.st1{fill:#527970;}
	.st2{fill:#FFFFFF;}
	.st3{fill:#83A98C;}
</style>
<g>
	<path class="st0" d="M96.5,37.8c-0.2,0.5-0.5,0.8-1,0.8c-0.5,0-0.9-0.3-1.1-0.8L89.1,23v18.9c0,0.6-0.3,1-1,1h-0.6
		c-0.6,0-1-0.3-1-1V17.3c0-0.6,0.3-1,1-1h0.8c0.6,0,0.9,0.3,1.1,0.8l5.9,16.8l6-16.8c0.2-0.5,0.6-0.8,1.1-0.8h0.9c0.6,0,1,0.3,1,1
		v24.6c0,0.6-0.3,1-1,1h-0.7c-0.6,0-1-0.3-1-1V23L96.5,37.8z"/>
	<path class="st0" d="M121.1,42.9h-0.8c-0.6,0-1-0.3-1.1-0.9l-1.1-5.7h-6.5l-1.1,5.7c-0.1,0.6-0.5,0.9-1.1,0.9h-0.6
		c-0.7,0-1-0.4-0.9-1.1l5.2-24.6c0.1-0.6,0.5-0.9,1.1-0.9h1.4c0.6,0,1,0.3,1.1,0.9l5.3,24.6C122.1,42.5,121.8,42.9,121.1,42.9z
		 M117.6,33.9l-2.8-13.8L112,33.9H117.6z"/>
	<path class="st0" d="M134.2,17.3v0.5c0,0.6-0.4,1-1,1h-3.9v23.1c0,0.6-0.3,1-1,1h-0.8c-0.6,0-1-0.3-1-1V18.8h-3.8c-0.6,0-1-0.3-1-1
		v-0.5c0-0.6,0.3-1,1-1h10.4C133.8,16.3,134.2,16.7,134.2,17.3z"/>
	<path class="st0" d="M147.5,17.3v0.5c0,0.6-0.4,1-1,1h-3.9v23.1c0,0.6-0.3,1-1,1h-0.8c-0.6,0-1-0.3-1-1V18.8H136c-0.6,0-1-0.3-1-1
		v-0.5c0-0.6,0.3-1,1-1h10.4C147.1,16.3,147.5,16.7,147.5,17.3z"/>
	<path class="st0" d="M163.1,33.6v4c0,4.1-2.7,5.6-6.7,5.6h-0.1c-4,0-6.7-1.5-6.7-5.6v-16c0-4,2.7-5.6,6.7-5.6h0.1
		c4,0,6.7,1.7,6.7,5.6V25c0,1-0.5,1.5-1.5,1.5h-1.4c-1,0-1.5-0.5-1.5-1.5v-2.7c0-1.9-0.9-2.4-2.3-2.4s-2.3,0.6-2.3,2.4v14.6
		c0,1.9,0.9,2.4,2.3,2.4s2.3-0.6,2.3-2.4v-3.3c0-1,0.5-1.5,1.5-1.5h1.4C162.5,32.1,163.1,32.6,163.1,33.6z"/>
	<path class="st0" d="M179.9,17.8v19.8c0,4.1-2.6,5.6-6.6,5.6h-0.2c-4,0-6.6-1.5-6.6-5.6V17.8c0-1,0.5-1.5,1.5-1.5h1.4
		c1,0,1.5,0.5,1.5,1.5v19.1c0,1.9,0.8,2.4,2.3,2.4s2.3-0.5,2.3-2.4V17.8c0-1,0.5-1.5,1.5-1.5h1.4C179.3,16.3,179.9,16.8,179.9,17.8z
		"/>
	<path class="st0" d="M196.2,42.9h-1.3c-0.9,0-1.4-0.4-1.7-1.3l-3-9.3H188v9.1c0,1-0.5,1.5-1.5,1.5h-1.4c-1,0-1.5-0.5-1.5-1.5V17.8
		c0-1,0.5-1.5,1.5-1.5h5.4c4,0,6.7,1.6,6.7,5.6v4.8c0,2.5-1.1,4.1-2.9,4.9l3.2,9.5C197.8,42.2,197.3,42.9,196.2,42.9z M188,28.5h2.3
		c1.4,0,2.4-0.5,2.4-2.4v-3.5c0-1.9-1-2.4-2.4-2.4H188V28.5z"/>
	<path class="st0" d="M212.1,17.8v0.8c0,1-0.5,1.5-1.5,1.5h-2.9v21.2c0,1-0.5,1.5-1.5,1.5h-1.4c-1,0-1.5-0.5-1.5-1.5V20.2h-2.9
		c-1,0-1.5-0.5-1.5-1.5v-0.8c0-1,0.5-1.5,1.5-1.5h10.3C211.6,16.3,212.1,16.8,212.1,17.8z"/>
	<path class="st0" d="M217.3,42.9h-1.4c-1,0-1.5-0.5-1.5-1.5V17.8c0-1,0.5-1.5,1.5-1.5h1.4c1,0,1.5,0.5,1.5,1.5v23.6
		C218.8,42.4,218.3,42.9,217.3,42.9z"/>
	<path class="st0" d="M225.3,42.9h-1c-1,0-1.5-0.5-1.5-1.5V17.8c0-1,0.5-1.5,1.5-1.5h1.6c0.9,0,1.4,0.4,1.7,1.3l5.2,15.2V17.8
		c0-1,0.5-1.5,1.5-1.5h1c1,0,1.5,0.5,1.5,1.5v23.6c0,1-0.5,1.5-1.5,1.5h-1.4c-0.9,0-1.4-0.4-1.7-1.3l-5.4-16v15.8
		C226.8,42.4,226.3,42.9,225.3,42.9z"/>
	<path class="st1" d="M92.3,50.5c0.8,0.8,1.2,2,1.2,3.4c0,1.5-0.4,2.6-1.2,3.4c-0.8,0.8-1.9,1.2-3.4,1.2h-3.3v-9.3h3.3
		C90.4,49.3,91.5,49.7,92.3,50.5z M91.2,56.5C91.7,55.9,92,55,92,54c0-1.1-0.3-1.9-0.8-2.5c-0.5-0.6-1.3-0.9-2.3-0.9h-1.8v6.7h1.8
		C89.9,57.3,90.7,57,91.2,56.5z"/>
	<path class="st1" d="M102.2,55.7H97c0.1,0.6,0.3,1.1,0.7,1.4c0.4,0.3,0.8,0.5,1.4,0.5c0.5,0,0.8-0.1,1.1-0.2
		c0.3-0.2,0.5-0.4,0.6-0.7l1.3,0.5c-0.5,1.1-1.5,1.6-3,1.6c-1.1,0-2-0.3-2.6-1c-0.6-0.6-0.9-1.5-0.9-2.7c0-1.2,0.3-2.1,0.9-2.7
		c0.6-0.6,1.4-1,2.5-1c1,0,1.8,0.3,2.4,0.9c0.6,0.6,0.9,1.5,0.9,2.5C102.2,55.2,102.2,55.4,102.2,55.7z M97.6,53.1
		c-0.3,0.3-0.5,0.8-0.6,1.4h3.8c-0.1-0.6-0.3-1.1-0.6-1.4c-0.3-0.3-0.7-0.5-1.3-0.5C98.4,52.6,98,52.8,97.6,53.1z"/>
	<path class="st1" d="M105.1,58.4c-0.5-0.2-1-0.6-1.2-1.1l1-0.9c0.2,0.4,0.5,0.7,0.8,0.9c0.4,0.2,0.8,0.3,1.4,0.3
		c0.5,0,0.8-0.1,1.1-0.2c0.3-0.2,0.4-0.4,0.4-0.6c0-0.2-0.1-0.4-0.4-0.5c-0.2-0.1-0.7-0.3-1.3-0.4c-1-0.2-1.8-0.5-2.2-0.8
		c-0.4-0.3-0.6-0.8-0.6-1.4c0-0.4,0.1-0.7,0.4-1.1c0.2-0.3,0.6-0.6,1-0.8c0.4-0.2,1-0.3,1.6-0.3c0.8,0,1.4,0.1,1.9,0.4
		c0.5,0.3,0.8,0.7,1.1,1.2l-1.1,0.8c-0.2-0.4-0.4-0.7-0.7-0.9c-0.3-0.2-0.7-0.3-1.2-0.3c-0.4,0-0.8,0.1-1,0.3
		c-0.3,0.2-0.4,0.4-0.4,0.6c0,0.3,0.1,0.5,0.4,0.6c0.2,0.1,0.7,0.3,1.4,0.4c1,0.2,1.7,0.4,2.1,0.8c0.4,0.3,0.6,0.8,0.6,1.4
		c0,0.6-0.3,1.1-0.8,1.5c-0.5,0.4-1.3,0.6-2.3,0.6C106.3,58.8,105.7,58.6,105.1,58.4z"/>
	<path class="st1" d="M112.3,50.1c-0.2-0.2-0.3-0.4-0.3-0.7c0-0.3,0.1-0.5,0.3-0.7c0.2-0.2,0.4-0.2,0.7-0.2s0.6,0.1,0.7,0.2
		c0.2,0.2,0.3,0.4,0.3,0.7c0,0.3-0.1,0.5-0.3,0.7c-0.2,0.2-0.4,0.2-0.7,0.2S112.5,50.3,112.3,50.1z M113.8,58.6h-1.5v-7h1.5V58.6z"
		/>
	<path class="st1" d="M122.2,58c0.4,0.3,0.6,0.8,0.6,1.3c0,0.5-0.2,0.9-0.5,1.2c-0.3,0.3-0.7,0.6-1.3,0.8c-0.5,0.2-1.2,0.3-1.9,0.3
		c-1.1,0-2-0.2-2.5-0.5c-0.6-0.3-0.8-0.8-0.8-1.3c0-0.3,0.1-0.6,0.3-0.8c0.2-0.2,0.5-0.4,0.9-0.5c-0.3-0.1-0.5-0.3-0.7-0.5
		c-0.2-0.2-0.3-0.5-0.3-0.8c0-0.7,0.4-1.2,1.1-1.4c-0.4-0.2-0.6-0.5-0.8-0.8c-0.2-0.3-0.3-0.7-0.3-1.1c0-0.5,0.1-0.9,0.4-1.2
		c0.3-0.4,0.6-0.6,1.1-0.8c0.5-0.2,1-0.3,1.6-0.3c0.5,0,1,0.1,1.4,0.2c0.1-0.5,0.4-0.9,0.7-1.2c0.3-0.3,0.8-0.4,1.4-0.4l0.3,1.2
		c-0.5,0-0.8,0-1.1,0.2c-0.3,0.1-0.5,0.3-0.6,0.5c0.3,0.2,0.5,0.5,0.7,0.8c0.2,0.3,0.3,0.7,0.3,1c0,0.7-0.3,1.3-0.8,1.7
		c-0.6,0.4-1.3,0.6-2.2,0.6c-0.4,0-0.8,0-1.2-0.1c-0.2,0.1-0.4,0.1-0.5,0.3c-0.1,0.1-0.2,0.3-0.2,0.5c0,0.2,0.1,0.4,0.2,0.5
		c0.2,0.1,0.4,0.2,0.6,0.2h2.4C121.3,57.5,121.8,57.7,122.2,58z M120.9,60.2c0.4-0.2,0.6-0.4,0.6-0.7c0-0.2-0.1-0.4-0.3-0.5
		c-0.2-0.1-0.5-0.2-0.9-0.2h-1.9c-0.4,0-0.7,0.1-1,0.2c-0.2,0.1-0.3,0.3-0.3,0.5c0,0.3,0.2,0.6,0.6,0.7c0.4,0.2,0.9,0.3,1.7,0.3
		C120,60.5,120.6,60.4,120.9,60.2z M118.1,52.9c-0.3,0.2-0.4,0.6-0.4,1c0,0.4,0.1,0.7,0.4,1c0.3,0.2,0.7,0.4,1.1,0.4
		c0.4,0,0.8-0.1,1.1-0.4c0.3-0.2,0.4-0.6,0.4-1c0-0.4-0.1-0.7-0.4-1c-0.3-0.2-0.7-0.4-1.1-0.4C118.8,52.5,118.4,52.6,118.1,52.9z"/>
	<path class="st1" d="M130.3,52.1c0.5,0.5,0.7,1.1,0.7,1.9v4.6h-1.5v-4.1c0-1.2-0.5-1.9-1.5-1.9c-0.5,0-1,0.2-1.4,0.5
		s-0.6,0.9-0.6,1.7v3.7h-1.5v-7h1.3l0.1,1.2c0.2-0.4,0.6-0.8,1-1s0.9-0.3,1.4-0.3C129.2,51.4,129.8,51.7,130.3,52.1z"/>
	<path class="st1" d="M139.9,55.7h-5.2c0.1,0.6,0.3,1.1,0.7,1.4c0.4,0.3,0.8,0.5,1.4,0.5c0.5,0,0.8-0.1,1.1-0.2
		c0.3-0.2,0.5-0.4,0.6-0.7l1.3,0.5c-0.5,1.1-1.5,1.6-3,1.6c-1.1,0-2-0.3-2.6-1c-0.6-0.6-0.9-1.5-0.9-2.7c0-1.2,0.3-2.1,0.9-2.7
		c0.6-0.6,1.4-1,2.5-1c1,0,1.8,0.3,2.4,0.9c0.6,0.6,0.9,1.5,0.9,2.5C140,55.2,140,55.4,139.9,55.7z M135.4,53.1
		c-0.3,0.3-0.5,0.8-0.6,1.4h3.8c-0.1-0.6-0.3-1.1-0.6-1.4c-0.3-0.3-0.7-0.5-1.3-0.5C136.2,52.6,135.7,52.8,135.4,53.1z"/>
	<path class="st1" d="M146.6,51.6l-0.2,1.4c-0.2-0.1-0.5-0.2-0.9-0.2c-0.3,0-0.6,0.1-0.9,0.2c-0.3,0.2-0.5,0.4-0.7,0.7
		c-0.2,0.3-0.3,0.7-0.3,1.2v3.7h-1.5v-7h1.3l0.1,1.3c0.4-0.9,1.1-1.4,2.2-1.4C146.2,51.4,146.4,51.5,146.6,51.6z"/>
	<path class="st1" d="M160.5,58.8c-0.4,0-0.8-0.1-1.1-0.2c-0.3-0.1-0.7-0.4-1.1-0.8c-0.3,0.3-0.8,0.6-1.2,0.7
		c-0.5,0.2-1,0.3-1.5,0.3c-0.6,0-1.1-0.1-1.6-0.3c-0.5-0.2-0.8-0.5-1.1-0.9c-0.3-0.4-0.4-0.8-0.4-1.3c0-0.6,0.2-1.1,0.5-1.5
		c0.3-0.5,0.9-0.9,1.6-1.2c-0.4-0.5-0.7-0.9-0.8-1.2c-0.2-0.3-0.2-0.7-0.2-1c0-0.4,0.1-0.7,0.3-1c0.2-0.3,0.5-0.6,0.8-0.8
		c0.4-0.2,0.8-0.3,1.3-0.3c0.7,0,1.3,0.2,1.7,0.5c0.4,0.3,0.6,0.8,0.6,1.5c0,0.5-0.1,1-0.4,1.4c-0.3,0.4-0.8,0.8-1.5,1.2
		c0.4,0.5,0.7,0.8,0.9,1c0.5,0.6,0.9,1,1.1,1.3c0.3-0.6,0.5-1.3,0.5-2.1l0-0.3l1.1,0.1c0,0.6,0,1.1-0.2,1.7s-0.4,1-0.7,1.4
		c0.3,0.3,0.6,0.5,0.9,0.7c0.2,0.1,0.5,0.2,0.9,0.1L160.5,58.8z M154.3,57.2c0.3,0.3,0.8,0.4,1.2,0.4c0.8,0,1.4-0.2,2-0.6
		c-0.4-0.5-0.8-0.9-1.2-1.3l-0.2-0.2l-0.9-1.1c-0.6,0.3-1,0.7-1.2,0.9c-0.2,0.3-0.3,0.6-0.3,0.9C153.8,56.6,154,57,154.3,57.2z
		 M155.2,50.6c-0.2,0.2-0.3,0.4-0.3,0.7c0,0.2,0.1,0.5,0.2,0.7c0.1,0.2,0.3,0.5,0.7,1c0.5-0.3,0.8-0.6,1-0.9
		c0.2-0.3,0.2-0.6,0.2-0.9c0-0.3-0.1-0.5-0.3-0.7c-0.2-0.2-0.4-0.2-0.8-0.2C155.6,50.3,155.3,50.4,155.2,50.6z"/>
	<path class="st1" d="M172.8,49.6c0.6,0.3,1.1,0.8,1.5,1.4l-1.1,1c-0.3-0.6-0.6-1-1-1.2c-0.4-0.3-0.9-0.4-1.6-0.4
		c-0.6,0-1.2,0.1-1.5,0.4c-0.4,0.3-0.5,0.6-0.5,1c0,0.4,0.2,0.7,0.5,0.9c0.3,0.2,1,0.4,1.9,0.6c0.8,0.1,1.5,0.3,2,0.6
		c0.5,0.2,0.9,0.5,1.1,0.9s0.3,0.8,0.3,1.3c0,0.5-0.2,1-0.5,1.4c-0.3,0.4-0.7,0.7-1.3,1c-0.6,0.2-1.2,0.3-1.9,0.3
		c-1.9,0-3.2-0.6-4-1.9l1.1-1.1c0.3,0.6,0.7,1,1.2,1.2s1.1,0.4,1.8,0.4c0.7,0,1.2-0.1,1.6-0.3c0.4-0.2,0.6-0.6,0.6-1
		c0-0.3-0.2-0.6-0.5-0.8c-0.3-0.2-0.9-0.4-1.8-0.5c-0.9-0.2-1.5-0.4-2-0.6c-0.5-0.2-0.9-0.5-1.1-0.9c-0.2-0.3-0.3-0.8-0.3-1.3
		c0-0.5,0.1-1,0.4-1.4c0.3-0.4,0.7-0.8,1.3-1c0.5-0.3,1.2-0.4,1.9-0.4C171.4,49.2,172.2,49.3,172.8,49.6z"/>
	<path class="st1" d="M181.1,58.1c-0.2,0.2-0.5,0.3-0.8,0.4c-0.3,0.1-0.7,0.2-1,0.2c-0.6,0-1.2-0.2-1.6-0.5
		c-0.4-0.3-0.6-0.8-0.6-1.5v-4h-1.3v-1.2h1.3v-1.6l1.5-0.4v2.1h2.5v1.2h-2.5v3.7c0,0.3,0.1,0.6,0.3,0.8c0.2,0.2,0.4,0.2,0.8,0.2
		c0.4,0,0.8-0.1,1.1-0.5L181.1,58.1z"/>
	<path class="st1" d="M187.3,51.6l-0.2,1.4c-0.2-0.1-0.5-0.2-0.9-0.2c-0.3,0-0.6,0.1-0.9,0.2c-0.3,0.2-0.5,0.4-0.7,0.7
		c-0.2,0.3-0.3,0.7-0.3,1.2v3.7h-1.5v-7h1.3l0.1,1.3c0.4-0.9,1.1-1.4,2.2-1.4C186.9,51.4,187.1,51.5,187.3,51.6z"/>
	<path class="st1" d="M195.5,57.6l-0.1,1c-0.3,0.1-0.5,0.2-0.9,0.2c-0.4,0-0.7-0.1-1-0.2c-0.2-0.2-0.4-0.4-0.5-0.8
		c-0.2,0.3-0.5,0.6-1,0.8s-0.9,0.3-1.4,0.3c-0.7,0-1.2-0.2-1.7-0.5c-0.4-0.3-0.6-0.8-0.6-1.4c0-0.6,0.2-1,0.7-1.4
		c0.5-0.4,1.1-0.7,2.1-0.8l1.8-0.3V54c0-0.4-0.1-0.8-0.4-1c-0.3-0.2-0.6-0.4-1.1-0.4c-0.9,0-1.5,0.4-1.8,1.3l-1.2-0.6
		c0.2-0.6,0.5-1,1-1.3c0.5-0.3,1.2-0.5,1.9-0.5c0.9,0,1.6,0.2,2.2,0.6c0.5,0.4,0.8,1,0.8,1.9v3.2c0,0.2,0,0.3,0.1,0.4
		c0.1,0.1,0.2,0.1,0.4,0.1C195.2,57.6,195.4,57.6,195.5,57.6z M192.4,57.2c0.4-0.2,0.6-0.6,0.6-1v-0.8l-1.5,0.3
		c-0.5,0.1-0.8,0.2-1.1,0.4c-0.2,0.2-0.4,0.4-0.4,0.7c0,0.3,0.1,0.5,0.3,0.6c0.2,0.1,0.4,0.2,0.8,0.2
		C191.6,57.6,192,57.5,192.4,57.2z"/>
	<path class="st1" d="M201.6,58.1c-0.2,0.2-0.5,0.3-0.8,0.4c-0.3,0.1-0.7,0.2-1,0.2c-0.6,0-1.2-0.2-1.6-0.5
		c-0.4-0.3-0.6-0.8-0.6-1.5v-4h-1.3v-1.2h1.3v-1.6l1.5-0.4v2.1h2.5v1.2h-2.5v3.7c0,0.3,0.1,0.6,0.3,0.8s0.4,0.2,0.8,0.2
		c0.4,0,0.8-0.1,1.1-0.5L201.6,58.1z"/>
	<path class="st1" d="M209.6,55.7h-5.2c0.1,0.6,0.3,1.1,0.7,1.4c0.4,0.3,0.8,0.5,1.4,0.5c0.5,0,0.8-0.1,1.1-0.2
		c0.3-0.2,0.5-0.4,0.6-0.7l1.3,0.5c-0.5,1.1-1.5,1.6-3,1.6c-1.1,0-2-0.3-2.6-1c-0.6-0.6-0.9-1.5-0.9-2.7c0-1.2,0.3-2.1,0.9-2.7
		c0.6-0.6,1.4-1,2.5-1c1,0,1.8,0.3,2.4,0.9c0.6,0.6,0.9,1.5,0.9,2.5C209.6,55.2,209.6,55.4,209.6,55.7z M205.1,53.1
		c-0.3,0.3-0.5,0.8-0.6,1.4h3.8c-0.1-0.6-0.3-1.1-0.6-1.4c-0.3-0.3-0.7-0.5-1.3-0.5C205.8,52.6,205.4,52.8,205.1,53.1z"/>
	<path class="st1" d="M217.6,58c0.4,0.3,0.6,0.8,0.6,1.3c0,0.5-0.2,0.9-0.5,1.2c-0.3,0.3-0.7,0.6-1.3,0.8s-1.2,0.3-1.9,0.3
		c-1.1,0-2-0.2-2.5-0.5c-0.6-0.3-0.8-0.8-0.8-1.3c0-0.3,0.1-0.6,0.3-0.8c0.2-0.2,0.5-0.4,0.9-0.5c-0.3-0.1-0.5-0.3-0.7-0.5
		c-0.2-0.2-0.3-0.5-0.3-0.8c0-0.7,0.4-1.2,1.1-1.4c-0.4-0.2-0.6-0.5-0.8-0.8c-0.2-0.3-0.3-0.7-0.3-1.1c0-0.5,0.1-0.9,0.4-1.2
		c0.3-0.4,0.6-0.6,1.1-0.8c0.5-0.2,1-0.3,1.6-0.3c0.5,0,1,0.1,1.4,0.2c0.1-0.5,0.4-0.9,0.7-1.2c0.3-0.3,0.8-0.4,1.4-0.4l0.3,1.2
		c-0.5,0-0.8,0-1.1,0.2c-0.3,0.1-0.5,0.3-0.6,0.5c0.3,0.2,0.5,0.5,0.7,0.8c0.2,0.3,0.3,0.7,0.3,1c0,0.7-0.3,1.3-0.8,1.7
		c-0.6,0.4-1.3,0.6-2.2,0.6c-0.4,0-0.8,0-1.2-0.1c-0.2,0.1-0.4,0.1-0.5,0.3c-0.1,0.1-0.2,0.3-0.2,0.5c0,0.2,0.1,0.4,0.2,0.5
		s0.4,0.2,0.6,0.2h2.4C216.7,57.5,217.2,57.7,217.6,58z M216.4,60.2c0.4-0.2,0.6-0.4,0.6-0.7c0-0.2-0.1-0.4-0.3-0.5
		c-0.2-0.1-0.5-0.2-0.9-0.2h-1.9c-0.4,0-0.7,0.1-1,0.2c-0.2,0.1-0.3,0.3-0.3,0.5c0,0.3,0.2,0.6,0.6,0.7c0.4,0.2,0.9,0.3,1.7,0.3
		C215.4,60.5,216,60.4,216.4,60.2z M213.5,52.9c-0.3,0.2-0.4,0.6-0.4,1c0,0.4,0.1,0.7,0.4,1c0.3,0.2,0.7,0.4,1.1,0.4
		c0.4,0,0.8-0.1,1.1-0.4c0.3-0.2,0.4-0.6,0.4-1c0-0.4-0.1-0.7-0.4-1c-0.3-0.2-0.7-0.4-1.1-0.4C214.2,52.5,213.8,52.6,213.5,52.9z"/>
	<path class="st1" d="M220,50.1c-0.2-0.2-0.3-0.4-0.3-0.7c0-0.3,0.1-0.5,0.3-0.7c0.2-0.2,0.4-0.2,0.7-0.2s0.6,0.1,0.7,0.2
		c0.2,0.2,0.3,0.4,0.3,0.7c0,0.3-0.1,0.5-0.3,0.7c-0.2,0.2-0.4,0.2-0.7,0.2S220.2,50.3,220,50.1z M221.5,58.6H220v-7h1.5V58.6z"/>
	<path class="st1" d="M224.9,58.4c-0.5-0.2-1-0.6-1.2-1.1l1-0.9c0.2,0.4,0.5,0.7,0.8,0.9c0.4,0.2,0.8,0.3,1.4,0.3
		c0.5,0,0.8-0.1,1.1-0.2c0.3-0.2,0.4-0.4,0.4-0.6c0-0.2-0.1-0.4-0.4-0.5c-0.2-0.1-0.7-0.3-1.3-0.4c-1-0.2-1.8-0.5-2.2-0.8
		c-0.4-0.3-0.6-0.8-0.6-1.4c0-0.4,0.1-0.7,0.4-1.1c0.2-0.3,0.6-0.6,1-0.8c0.4-0.2,1-0.3,1.6-0.3c0.8,0,1.4,0.1,1.9,0.4
		c0.5,0.3,0.8,0.7,1.1,1.2l-1.1,0.8c-0.2-0.4-0.4-0.7-0.7-0.9s-0.7-0.3-1.2-0.3c-0.4,0-0.8,0.1-1,0.3s-0.4,0.4-0.4,0.6
		c0,0.3,0.1,0.5,0.4,0.6c0.2,0.1,0.7,0.3,1.4,0.4c1,0.2,1.7,0.4,2.1,0.8c0.4,0.3,0.6,0.8,0.6,1.4c0,0.6-0.3,1.1-0.8,1.5
		c-0.5,0.4-1.3,0.6-2.3,0.6C226.1,58.8,225.4,58.6,224.9,58.4z"/>
	<path class="st1" d="M236.6,58.1c-0.2,0.2-0.5,0.3-0.8,0.4c-0.3,0.1-0.7,0.2-1,0.2c-0.6,0-1.2-0.2-1.6-0.5
		c-0.4-0.3-0.6-0.8-0.6-1.5v-4h-1.3v-1.2h1.3v-1.6l1.5-0.4v2.1h2.5v1.2h-2.5v3.7c0,0.3,0.1,0.6,0.3,0.8s0.4,0.2,0.8,0.2
		c0.4,0,0.8-0.1,1.1-0.5L236.6,58.1z"/>
</g>
<g>
	<path class="st0" d="M8,0h57.2c4.4,0,8,3.6,8,8v54.9c0,4.4-3.6,8-8,8H8c-4.4,0-8-3.6-8-8V8C0,3.6,3.6,0,8,0z"/>
	<path d="M29.7,48.3c-0.2,0.5-0.5,0.8-0.9,0.8c-0.5,0-0.8-0.3-1-0.8l-9.9-28.8v36.2c0,0.6-0.3,1-0.9,1h-0.3c-0.6,0-0.9-0.4-0.9-1
		V13.9c0-0.6,0.3-1,0.9-1h0.6c0.5,0,0.9,0.3,1.1,0.8l10.4,30.7l10.5-30.7c0.2-0.5,0.6-0.8,1.1-0.8H41c0.6,0,0.9,0.4,0.9,1v29.5
		c0,0.6-0.3,1-0.9,1h-0.5c-0.6,0-0.9-0.4-0.9-1V19.5L29.7,48.3z"/>
	<path class="st2" d="M30.2,48.7c-0.2,0.5-0.5,0.8-0.9,0.8c-0.5,0-0.8-0.3-1-0.8L18.4,20v36.2c0,0.6-0.3,1-0.9,1h-0.3
		c-0.6,0-0.9-0.4-0.9-1V14.3c0-0.6,0.3-1,0.9-1h0.6c0.5,0,0.9,0.3,1.1,0.8l10.4,30.7l10.5-30.7c0.2-0.5,0.6-0.8,1.1-0.8h0.7
		c0.6,0,0.9,0.4,0.9,1v29.5c0,0.6-0.3,1-0.9,1H41c-0.6,0-0.9-0.4-0.9-1V20L30.2,48.7z"/>
	<g>
		<path d="M57.5,39v7.8c0,6.5-2.8,9.8-8.9,9.8h-0.1c-6,0-8.9-3.2-8.9-9.8V22.6c0-6.2,2.8-9.8,8.9-9.8h0.1c6,0,8.9,3.5,8.9,9.8v6.7
			c0,0.7-0.3,1.1-0.9,1.1h-0.5c-0.6,0-0.9-0.4-0.9-1.1v-5.5c0-5.9-1.7-8.4-6.6-8.4S42,17.9,42,23.8v21.9c0,5.9,1.7,8.4,6.6,8.4
			s6.6-2.6,6.6-8.4V39c0-0.7,0.3-1.1,0.9-1.1h0.5C57.1,37.9,57.5,38.4,57.5,39z"/>
	</g>
	<g>
		<path class="st3" d="M57.9,39.5v7.8c0,6.5-2.8,9.8-8.9,9.8H49c-6,0-8.9-3.2-8.9-9.8V23.1c0-6.2,2.8-9.8,8.9-9.8h0.1
			c6,0,8.9,3.5,8.9,9.8v6.7c0,0.7-0.3,1.1-0.9,1.1h-0.5c-0.6,0-0.9-0.4-0.9-1.1v-5.5c0-5.9-1.7-8.4-6.6-8.4s-6.6,2.6-6.6,8.4v21.9
			c0,5.9,1.7,8.4,6.6,8.4s6.6-2.6,6.6-8.4v-6.7c0-0.7,0.3-1.1,0.9-1.1H57C57.6,38.4,57.9,38.8,57.9,39.5z"/>
	</g>
</g>
</svg>
