<?xml version="1.0" encoding="utf-8"?>
<!-- Generator: Adobe Illustrator 20.1.0, SVG Export Plug-In . SVG Version: 6.00 Build 0)  -->
<svg version="1.1" id="Layer_1" xmlns="http://www.w3.org/2000/svg" xmlns:xlink="http://www.w3.org/1999/xlink" x="0px" y="0px"
	 viewBox="0 0 64 73.7" style="enable-background:new 0 0 64 73.7;" xml:space="preserve">
<style type="text/css">
	.st0{fill:#4B2D87;}
	.st1{fill:#903F98;}
	.st2{fill:url(#SVGID_1_);}
</style>
<g>
	<polygon class="st0" points="13.1,47.9 13.2,26.3 31.7,37 50.4,26.4 64,18.6 31.7,0 0,18.6 0,18.6 0,55.1 32,73.7 50.9,62.6 
		50.9,47.6 31.5,58.4 	"/>
	<g>
		<polygon class="st1" points="13.2,26.3 31.7,37 50.4,26.4 31.4,15.5 		"/>
		<g>
			<polyline class="st0" points="0,18.6 0,55.1 32,73.7 50.9,62.6 50.9,47.6 31.5,58.4 13.1,47.9 13.2,26.3 31.4,15.5 50.4,26.4 
				64,18.6 31.7,0 0,18.6 			"/>
			<linearGradient id="SVGID_1_" gradientUnits="userSpaceOnUse" x1="6.6013" y1="48.3962" x2="6.6013" y2="18.6182">
				<stop  offset="0" style="stop-color:#4C2E86"/>
				<stop  offset="0.2551" style="stop-color:#4C2E86"/>
				<stop  offset="1" style="stop-color:#2D1F56"/>
			</linearGradient>
			<polygon class="st2" points="0,18.6 13.2,26.3 13.2,48.4 0,40.7 			"/>
		</g>
	</g>
</g>
</svg>
