<?xml version="1.0" encoding="utf-8"?>
<!-- Generator: Adobe Illustrator 25.0.1, SVG Export Plug-In . SVG Version: 6.00 Build 0)  -->
<svg version="1.1" id="Layer_1" xmlns="http://www.w3.org/2000/svg" xmlns:xlink="http://www.w3.org/1999/xlink" x="0px" y="0px"
	 viewBox="0 0 238.6 74.2" style="enable-background:new 0 0 238.6 74.2;" xml:space="preserve">
<style type="text/css">
	.st0{fill:#2F3E46;}
	.st1{fill:#527970;}
	.st2{fill:#2E3E46;}
	.st3{fill:#FFFFFF;}
	.st4{fill:#82A98C;}
</style>
<g>
	<path class="st0" d="M98.3,36.6c-0.2,0.5-0.5,0.8-1,0.8c-0.5,0-0.9-0.3-1.1-0.8l-5.3-14.8v18.9c0,0.6-0.3,1-1,1h-0.6
		c-0.6,0-1-0.3-1-1V16.1c0-0.6,0.3-1,1-1h0.8c0.6,0,0.9,0.3,1.1,0.8l5.9,16.8l6-16.8c0.2-0.5,0.6-0.8,1.1-0.8h0.9c0.6,0,1,0.3,1,1
		v24.6c0,0.6-0.3,1-1,1h-0.7c-0.6,0-1-0.3-1-1V21.8L98.3,36.6z"/>
	<path class="st0" d="M122.9,41.7h-0.8c-0.6,0-1-0.3-1.1-0.9l-1.1-5.7h-6.5l-1.1,5.7c-0.1,0.6-0.5,0.9-1.1,0.9h-0.6
		c-0.7,0-1-0.4-0.9-1.1l5.2-24.6c0.1-0.6,0.5-0.9,1.1-0.9h1.4c0.6,0,1,0.3,1.1,0.9l5.3,24.6C123.9,41.3,123.6,41.7,122.9,41.7z
		 M119.4,32.7l-2.8-13.8l-2.8,13.8H119.4z"/>
	<path class="st0" d="M136,16.1v0.5c0,0.6-0.4,1-1,1h-3.9v23.1c0,0.6-0.3,1-1,1h-0.8c-0.6,0-1-0.3-1-1V17.6h-3.8c-0.6,0-1-0.3-1-1
		v-0.5c0-0.6,0.3-1,1-1H135C135.6,15.1,136,15.5,136,16.1z"/>
	<path class="st0" d="M149.3,16.1v0.5c0,0.6-0.4,1-1,1h-3.9v23.1c0,0.6-0.3,1-1,1h-0.8c-0.6,0-1-0.3-1-1V17.6h-3.8c-0.6,0-1-0.3-1-1
		v-0.5c0-0.6,0.3-1,1-1h10.4C148.9,15.1,149.3,15.5,149.3,16.1z"/>
	<path class="st0" d="M164.9,32.4v4c0,4.1-2.7,5.6-6.7,5.6h-0.1c-4,0-6.7-1.5-6.7-5.6v-16c0-4,2.7-5.6,6.7-5.6h0.1
		c4,0,6.7,1.7,6.7,5.6v3.3c0,1-0.5,1.5-1.5,1.5H162c-1,0-1.5-0.5-1.5-1.5v-2.7c0-1.9-0.9-2.4-2.3-2.4s-2.3,0.6-2.3,2.4v14.6
		c0,1.9,0.9,2.4,2.3,2.4s2.3-0.6,2.3-2.4v-3.3c0-1,0.5-1.5,1.5-1.5h1.4C164.3,30.9,164.9,31.4,164.9,32.4z"/>
	<path class="st0" d="M181.7,16.6v19.8c0,4.1-2.6,5.6-6.6,5.6h-0.2c-4,0-6.6-1.5-6.6-5.6V16.6c0-1,0.5-1.5,1.5-1.5h1.4
		c1,0,1.5,0.5,1.5,1.5v19.1c0,1.9,0.8,2.4,2.3,2.4s2.3-0.5,2.3-2.4V16.6c0-1,0.5-1.5,1.5-1.5h1.4C181.1,15.1,181.7,15.6,181.7,16.6z
		"/>
	<path class="st0" d="M198,41.7h-1.3c-0.9,0-1.4-0.4-1.7-1.3l-3-9.3h-2.2v9.1c0,1-0.5,1.5-1.5,1.5h-1.4c-1,0-1.5-0.5-1.5-1.5V16.6
		c0-1,0.5-1.5,1.5-1.5h5.4c4,0,6.7,1.6,6.7,5.6v4.8c0,2.5-1.1,4.1-2.9,4.9l3.2,9.5C199.6,41,199.1,41.7,198,41.7z M189.8,27.3h2.3
		c1.4,0,2.4-0.5,2.4-2.4v-3.5c0-1.9-1-2.4-2.4-2.4h-2.3V27.3z"/>
	<path class="st0" d="M213.9,16.6v0.8c0,1-0.5,1.5-1.5,1.5h-2.9v21.2c0,1-0.5,1.5-1.5,1.5h-1.4c-1,0-1.5-0.5-1.5-1.5V19h-2.9
		c-1,0-1.5-0.5-1.5-1.5v-0.8c0-1,0.5-1.5,1.5-1.5h10.3C213.4,15.1,213.9,15.6,213.9,16.6z"/>
	<path class="st0" d="M219.1,41.7h-1.4c-1,0-1.5-0.5-1.5-1.5V16.6c0-1,0.5-1.5,1.5-1.5h1.4c1,0,1.5,0.5,1.5,1.5v23.6
		C220.6,41.2,220.1,41.7,219.1,41.7z"/>
	<path class="st0" d="M227.1,41.7h-1c-1,0-1.5-0.5-1.5-1.5V16.6c0-1,0.5-1.5,1.5-1.5h1.6c0.9,0,1.4,0.4,1.7,1.3l5.2,15.2V16.6
		c0-1,0.5-1.5,1.5-1.5h1c1,0,1.5,0.5,1.5,1.5v23.6c0,1-0.5,1.5-1.5,1.5h-1.4c-0.9,0-1.4-0.4-1.7-1.3l-5.4-16v15.8
		C228.6,41.2,228.1,41.7,227.1,41.7z"/>
	<path class="st1" d="M94.1,49.3c0.8,0.8,1.2,2,1.2,3.4c0,1.5-0.4,2.6-1.2,3.4c-0.8,0.8-1.9,1.2-3.4,1.2h-3.3v-9.3h3.3
		C92.2,48.1,93.3,48.5,94.1,49.3z M93,55.2c0.5-0.6,0.8-1.4,0.8-2.5c0-1.1-0.3-1.9-0.8-2.5c-0.5-0.6-1.3-0.9-2.3-0.9H89v6.7h1.8
		C91.7,56.1,92.5,55.8,93,55.2z"/>
	<path class="st1" d="M104,54.5h-5.2c0.1,0.6,0.3,1.1,0.7,1.4c0.4,0.3,0.8,0.5,1.4,0.5c0.5,0,0.8-0.1,1.1-0.2
		c0.3-0.2,0.5-0.4,0.6-0.7l1.3,0.5c-0.5,1.1-1.5,1.6-3,1.6c-1.1,0-2-0.3-2.6-1c-0.6-0.6-0.9-1.5-0.9-2.7c0-1.2,0.3-2.1,0.9-2.7
		s1.4-1,2.5-1c1,0,1.8,0.3,2.4,0.9c0.6,0.6,0.9,1.5,0.9,2.5C104,54,104,54.2,104,54.5z M99.4,51.9c-0.3,0.3-0.5,0.8-0.6,1.4h3.8
		c-0.1-0.6-0.3-1.1-0.6-1.4c-0.3-0.3-0.7-0.5-1.3-0.5C100.2,51.4,99.8,51.6,99.4,51.9z"/>
	<path class="st1" d="M106.9,57.2c-0.5-0.2-1-0.6-1.2-1.1l1-0.9c0.2,0.4,0.5,0.7,0.8,0.9c0.4,0.2,0.8,0.3,1.4,0.3
		c0.5,0,0.8-0.1,1.1-0.2c0.3-0.2,0.4-0.4,0.4-0.6c0-0.2-0.1-0.4-0.4-0.5c-0.2-0.1-0.7-0.3-1.3-0.4c-1-0.2-1.8-0.5-2.2-0.8
		c-0.4-0.3-0.6-0.8-0.6-1.4c0-0.4,0.1-0.7,0.4-1.1c0.2-0.3,0.6-0.6,1-0.8c0.4-0.2,1-0.3,1.6-0.3c0.8,0,1.4,0.1,1.9,0.4
		c0.5,0.3,0.8,0.7,1.1,1.2l-1.1,0.8c-0.2-0.4-0.4-0.7-0.7-0.9c-0.3-0.2-0.7-0.3-1.2-0.3c-0.4,0-0.8,0.1-1,0.3
		c-0.3,0.2-0.4,0.4-0.4,0.6c0,0.3,0.1,0.5,0.4,0.6c0.2,0.1,0.7,0.3,1.4,0.4c1,0.2,1.7,0.4,2.1,0.8c0.4,0.3,0.6,0.8,0.6,1.4
		c0,0.6-0.3,1.1-0.8,1.5c-0.5,0.4-1.3,0.6-2.3,0.6C108.1,57.6,107.5,57.4,106.9,57.2z"/>
	<path class="st1" d="M114.1,48.9c-0.2-0.2-0.3-0.4-0.3-0.7c0-0.3,0.1-0.5,0.3-0.7c0.2-0.2,0.4-0.2,0.7-0.2s0.6,0.1,0.7,0.2
		c0.2,0.2,0.3,0.4,0.3,0.7c0,0.3-0.1,0.5-0.3,0.7c-0.2,0.2-0.4,0.2-0.7,0.2S114.2,49.1,114.1,48.9z M115.6,57.4h-1.5v-7h1.5V57.4z"
		/>
	<path class="st1" d="M124,56.8c0.4,0.3,0.6,0.8,0.6,1.3c0,0.5-0.2,0.9-0.5,1.2c-0.3,0.3-0.7,0.6-1.3,0.8c-0.5,0.2-1.2,0.3-1.9,0.3
		c-1.1,0-2-0.2-2.5-0.5c-0.6-0.3-0.8-0.8-0.8-1.3c0-0.3,0.1-0.6,0.3-0.8c0.2-0.2,0.5-0.4,0.9-0.5c-0.3-0.1-0.5-0.3-0.7-0.5
		c-0.2-0.2-0.3-0.5-0.3-0.8c0-0.7,0.4-1.2,1.1-1.4c-0.4-0.2-0.6-0.5-0.8-0.8c-0.2-0.3-0.3-0.7-0.3-1.1c0-0.5,0.1-0.9,0.4-1.2
		c0.3-0.4,0.6-0.6,1.1-0.8s1-0.3,1.6-0.3c0.5,0,1,0.1,1.4,0.2c0.1-0.5,0.4-0.9,0.7-1.2c0.3-0.3,0.8-0.4,1.4-0.4l0.3,1.2
		c-0.5,0-0.8,0-1.1,0.2c-0.3,0.1-0.5,0.3-0.6,0.5c0.3,0.2,0.5,0.5,0.7,0.8c0.2,0.3,0.3,0.7,0.3,1c0,0.7-0.3,1.3-0.8,1.7
		S121.9,55,121,55c-0.4,0-0.8,0-1.2-0.1c-0.2,0.1-0.4,0.1-0.5,0.3c-0.1,0.1-0.2,0.3-0.2,0.5c0,0.2,0.1,0.4,0.2,0.5
		c0.2,0.1,0.4,0.2,0.6,0.2h2.4C123.1,56.3,123.6,56.5,124,56.8z M122.7,59c0.4-0.2,0.6-0.4,0.6-0.7c0-0.2-0.1-0.4-0.3-0.5
		c-0.2-0.1-0.5-0.2-0.9-0.2h-1.9c-0.4,0-0.7,0.1-1,0.2c-0.2,0.1-0.3,0.3-0.3,0.5c0,0.3,0.2,0.6,0.6,0.7c0.4,0.2,0.9,0.3,1.7,0.3
		C121.8,59.3,122.4,59.2,122.7,59z M119.9,51.7c-0.3,0.2-0.4,0.6-0.4,1c0,0.4,0.1,0.7,0.4,1c0.3,0.2,0.7,0.4,1.1,0.4
		c0.4,0,0.8-0.1,1.1-0.4c0.3-0.2,0.4-0.6,0.4-1c0-0.4-0.1-0.7-0.4-1c-0.3-0.2-0.7-0.4-1.1-0.4C120.6,51.3,120.2,51.4,119.9,51.7z"/>
	<path class="st1" d="M132.1,50.9c0.5,0.5,0.7,1.1,0.7,1.9v4.6h-1.5v-4.1c0-1.2-0.5-1.9-1.5-1.9c-0.5,0-1,0.2-1.4,0.5
		s-0.6,0.9-0.6,1.7v3.7h-1.5v-7h1.3l0.1,1.2c0.2-0.4,0.6-0.8,1-1s0.9-0.3,1.4-0.3C131,50.2,131.6,50.5,132.1,50.9z"/>
	<path class="st1" d="M141.7,54.5h-5.2c0.1,0.6,0.3,1.1,0.7,1.4c0.4,0.3,0.8,0.5,1.4,0.5c0.5,0,0.8-0.1,1.1-0.2
		c0.3-0.2,0.5-0.4,0.6-0.7l1.3,0.5c-0.5,1.1-1.5,1.6-3,1.6c-1.1,0-2-0.3-2.6-1c-0.6-0.6-0.9-1.5-0.9-2.7c0-1.2,0.3-2.1,0.9-2.7
		s1.4-1,2.5-1c1,0,1.8,0.3,2.4,0.9c0.6,0.6,0.9,1.5,0.9,2.5C141.8,54,141.8,54.2,141.7,54.5z M137.2,51.9c-0.3,0.3-0.5,0.8-0.6,1.4
		h3.8c-0.1-0.6-0.3-1.1-0.6-1.4c-0.3-0.3-0.7-0.5-1.3-0.5C138,51.4,137.5,51.6,137.2,51.9z"/>
	<path class="st1" d="M148.4,50.4l-0.2,1.4c-0.2-0.1-0.5-0.2-0.9-0.2c-0.3,0-0.6,0.1-0.9,0.2c-0.3,0.2-0.5,0.4-0.7,0.7
		c-0.2,0.3-0.3,0.7-0.3,1.2v3.7H144v-7h1.3l0.1,1.3c0.4-0.9,1.1-1.4,2.2-1.4C148,50.2,148.2,50.3,148.4,50.4z"/>
	<path class="st1" d="M162.3,57.6c-0.4,0-0.8-0.1-1.1-0.2c-0.3-0.1-0.7-0.4-1.1-0.8c-0.3,0.3-0.8,0.6-1.2,0.7
		c-0.5,0.2-1,0.3-1.5,0.3c-0.6,0-1.1-0.1-1.6-0.3c-0.5-0.2-0.8-0.5-1.1-0.9c-0.3-0.4-0.4-0.8-0.4-1.3c0-0.6,0.2-1.1,0.5-1.5
		c0.3-0.5,0.9-0.9,1.6-1.2c-0.4-0.5-0.7-0.9-0.8-1.2c-0.2-0.3-0.2-0.7-0.2-1c0-0.4,0.1-0.7,0.3-1c0.2-0.3,0.5-0.6,0.8-0.8
		c0.4-0.2,0.8-0.3,1.3-0.3c0.7,0,1.3,0.2,1.7,0.5c0.4,0.3,0.6,0.8,0.6,1.5c0,0.5-0.1,1-0.4,1.4c-0.3,0.4-0.8,0.8-1.5,1.2
		c0.4,0.5,0.7,0.8,0.9,1c0.5,0.6,0.9,1,1.1,1.3c0.3-0.6,0.5-1.3,0.5-2.1l0-0.3l1.1,0.1c0,0.6,0,1.1-0.2,1.7s-0.4,1-0.7,1.4
		c0.3,0.3,0.6,0.5,0.9,0.7c0.2,0.1,0.5,0.2,0.9,0.1L162.3,57.6z M156.1,56c0.3,0.3,0.8,0.4,1.2,0.4c0.8,0,1.4-0.2,2-0.6
		c-0.4-0.5-0.8-0.9-1.2-1.3l-0.2-0.2l-0.9-1.1c-0.6,0.3-1,0.7-1.2,0.9c-0.2,0.3-0.3,0.6-0.3,0.9C155.6,55.4,155.8,55.8,156.1,56z
		 M157,49.4c-0.2,0.2-0.3,0.4-0.3,0.7c0,0.2,0.1,0.5,0.2,0.7c0.1,0.2,0.3,0.5,0.7,1c0.5-0.3,0.8-0.6,1-0.9c0.2-0.3,0.2-0.6,0.2-0.9
		c0-0.3-0.1-0.5-0.3-0.7c-0.2-0.2-0.4-0.2-0.8-0.2C157.4,49.1,157.1,49.2,157,49.4z"/>
	<path class="st1" d="M174.6,48.4c0.6,0.3,1.1,0.8,1.5,1.4l-1.1,1c-0.3-0.6-0.6-1-1-1.2c-0.4-0.3-0.9-0.4-1.6-0.4
		c-0.6,0-1.2,0.1-1.5,0.4c-0.4,0.3-0.5,0.6-0.5,1c0,0.4,0.2,0.7,0.5,0.9c0.3,0.2,1,0.4,1.9,0.6c0.8,0.1,1.5,0.3,2,0.6
		c0.5,0.2,0.9,0.5,1.1,0.9s0.3,0.8,0.3,1.3c0,0.5-0.2,1-0.5,1.4c-0.3,0.4-0.7,0.7-1.3,1c-0.6,0.2-1.2,0.3-1.9,0.3
		c-1.9,0-3.2-0.6-4-1.9l1.1-1.1c0.3,0.6,0.7,1,1.2,1.2s1.1,0.4,1.8,0.4c0.7,0,1.2-0.1,1.6-0.3c0.4-0.2,0.6-0.6,0.6-1
		c0-0.3-0.2-0.6-0.5-0.8c-0.3-0.2-0.9-0.4-1.8-0.5c-0.9-0.2-1.5-0.4-2-0.6c-0.5-0.2-0.9-0.5-1.1-0.9c-0.2-0.3-0.3-0.8-0.3-1.3
		c0-0.5,0.1-1,0.4-1.4c0.3-0.4,0.7-0.8,1.3-1c0.5-0.3,1.2-0.4,1.9-0.4C173.2,48,173.9,48.1,174.6,48.4z"/>
	<path class="st1" d="M182.9,56.9c-0.2,0.2-0.5,0.3-0.8,0.4c-0.3,0.1-0.7,0.2-1,0.2c-0.6,0-1.2-0.2-1.6-0.5
		c-0.4-0.3-0.6-0.8-0.6-1.5v-4h-1.3v-1.2h1.3v-1.6l1.5-0.4v2.1h2.5v1.2h-2.5v3.7c0,0.3,0.1,0.6,0.3,0.8c0.2,0.2,0.4,0.2,0.8,0.2
		c0.4,0,0.8-0.1,1.1-0.5L182.9,56.9z"/>
	<path class="st1" d="M189.1,50.4l-0.2,1.4c-0.2-0.1-0.5-0.2-0.9-0.2c-0.3,0-0.6,0.1-0.9,0.2c-0.3,0.2-0.5,0.4-0.7,0.7
		c-0.2,0.3-0.3,0.7-0.3,1.2v3.7h-1.5v-7h1.3l0.1,1.3c0.4-0.9,1.1-1.4,2.2-1.4C188.7,50.2,188.9,50.3,189.1,50.4z"/>
	<path class="st1" d="M197.3,56.4l-0.1,1c-0.3,0.1-0.5,0.2-0.9,0.2c-0.4,0-0.7-0.1-1-0.2c-0.2-0.2-0.4-0.4-0.5-0.8
		c-0.2,0.3-0.5,0.6-1,0.8c-0.4,0.2-0.9,0.3-1.4,0.3c-0.7,0-1.2-0.2-1.7-0.5c-0.4-0.3-0.6-0.8-0.6-1.4c0-0.6,0.2-1,0.7-1.4
		c0.5-0.4,1.1-0.7,2.1-0.8l1.8-0.3v-0.4c0-0.4-0.1-0.8-0.4-1c-0.3-0.2-0.6-0.4-1.1-0.4c-0.9,0-1.5,0.4-1.8,1.3l-1.2-0.6
		c0.2-0.6,0.5-1,1-1.3c0.5-0.3,1.2-0.5,1.9-0.5c0.9,0,1.6,0.2,2.2,0.6c0.5,0.4,0.8,1,0.8,1.9v3.2c0,0.2,0,0.3,0.1,0.4
		c0.1,0.1,0.2,0.1,0.4,0.1C197,56.4,197.2,56.4,197.3,56.4z M194.2,56c0.4-0.2,0.6-0.6,0.6-1v-0.8l-1.5,0.3
		c-0.5,0.1-0.8,0.2-1.1,0.4c-0.2,0.2-0.4,0.4-0.4,0.7c0,0.3,0.1,0.5,0.3,0.6c0.2,0.1,0.4,0.2,0.8,0.2
		C193.4,56.4,193.8,56.3,194.2,56z"/>
	<path class="st1" d="M203.4,56.9c-0.2,0.2-0.5,0.3-0.8,0.4c-0.3,0.1-0.7,0.2-1,0.2c-0.6,0-1.2-0.2-1.6-0.5
		c-0.4-0.3-0.6-0.8-0.6-1.5v-4H198v-1.2h1.3v-1.6l1.5-0.4v2.1h2.5v1.2h-2.5v3.7c0,0.3,0.1,0.6,0.3,0.8s0.4,0.2,0.8,0.2
		c0.4,0,0.8-0.1,1.1-0.5L203.4,56.9z"/>
	<path class="st1" d="M211.4,54.5h-5.2c0.1,0.6,0.3,1.1,0.7,1.4c0.4,0.3,0.8,0.5,1.4,0.5c0.5,0,0.8-0.1,1.1-0.2
		c0.3-0.2,0.5-0.4,0.6-0.7l1.3,0.5c-0.5,1.1-1.5,1.6-3,1.6c-1.1,0-2-0.3-2.6-1c-0.6-0.6-0.9-1.5-0.9-2.7c0-1.2,0.3-2.1,0.9-2.7
		s1.4-1,2.5-1c1,0,1.8,0.3,2.4,0.9c0.6,0.6,0.9,1.5,0.9,2.5C211.4,54,211.4,54.2,211.4,54.5z M206.9,51.9c-0.3,0.3-0.5,0.8-0.6,1.4
		h3.8c-0.1-0.6-0.3-1.1-0.6-1.4c-0.3-0.3-0.7-0.5-1.3-0.5C207.6,51.4,207.2,51.6,206.9,51.9z"/>
	<path class="st1" d="M219.4,56.8c0.4,0.3,0.6,0.8,0.6,1.3c0,0.5-0.2,0.9-0.5,1.2c-0.3,0.3-0.7,0.6-1.3,0.8s-1.2,0.3-1.9,0.3
		c-1.1,0-2-0.2-2.5-0.5c-0.6-0.3-0.8-0.8-0.8-1.3c0-0.3,0.1-0.6,0.3-0.8c0.2-0.2,0.5-0.4,0.9-0.5c-0.3-0.1-0.5-0.3-0.7-0.5
		c-0.2-0.2-0.3-0.5-0.3-0.8c0-0.7,0.4-1.2,1.1-1.4c-0.4-0.2-0.6-0.5-0.8-0.8c-0.2-0.3-0.3-0.7-0.3-1.1c0-0.5,0.1-0.9,0.4-1.2
		c0.3-0.4,0.6-0.6,1.1-0.8c0.5-0.2,1-0.3,1.6-0.3c0.5,0,1,0.1,1.4,0.2c0.1-0.5,0.4-0.9,0.7-1.2c0.3-0.3,0.8-0.4,1.4-0.4l0.3,1.2
		c-0.5,0-0.8,0-1.1,0.2c-0.3,0.1-0.5,0.3-0.6,0.5c0.3,0.2,0.5,0.5,0.7,0.8c0.2,0.3,0.3,0.7,0.3,1c0,0.7-0.3,1.3-0.8,1.7
		c-0.6,0.4-1.3,0.6-2.2,0.6c-0.4,0-0.8,0-1.2-0.1c-0.2,0.1-0.4,0.1-0.5,0.3c-0.1,0.1-0.2,0.3-0.2,0.5c0,0.2,0.1,0.4,0.2,0.5
		s0.4,0.2,0.6,0.2h2.4C218.5,56.3,219,56.5,219.4,56.8z M218.2,59c0.4-0.2,0.6-0.4,0.6-0.7c0-0.2-0.1-0.4-0.3-0.5
		c-0.2-0.1-0.5-0.2-0.9-0.2h-1.9c-0.4,0-0.7,0.1-1,0.2c-0.2,0.1-0.3,0.3-0.3,0.5c0,0.3,0.2,0.6,0.6,0.7c0.4,0.2,0.9,0.3,1.7,0.3
		C217.2,59.3,217.8,59.2,218.2,59z M215.3,51.7c-0.3,0.2-0.4,0.6-0.4,1c0,0.4,0.1,0.7,0.4,1c0.3,0.2,0.7,0.4,1.1,0.4
		c0.4,0,0.8-0.1,1.1-0.4c0.3-0.2,0.4-0.6,0.4-1c0-0.4-0.1-0.7-0.4-1c-0.3-0.2-0.7-0.4-1.1-0.4C216,51.3,215.6,51.4,215.3,51.7z"/>
	<path class="st1" d="M221.8,48.9c-0.2-0.2-0.3-0.4-0.3-0.7c0-0.3,0.1-0.5,0.3-0.7c0.2-0.2,0.4-0.2,0.7-0.2s0.6,0.1,0.7,0.2
		c0.2,0.2,0.3,0.4,0.3,0.7c0,0.3-0.1,0.5-0.3,0.7c-0.2,0.2-0.4,0.2-0.7,0.2S222,49.1,221.8,48.9z M223.3,57.4h-1.5v-7h1.5V57.4z"/>
	<path class="st1" d="M226.7,57.2c-0.5-0.2-1-0.6-1.2-1.1l1-0.9c0.2,0.4,0.5,0.7,0.8,0.9c0.4,0.2,0.8,0.3,1.4,0.3
		c0.5,0,0.8-0.1,1.1-0.2c0.3-0.2,0.4-0.4,0.4-0.6c0-0.2-0.1-0.4-0.4-0.5c-0.2-0.1-0.7-0.3-1.3-0.4c-1-0.2-1.8-0.5-2.2-0.8
		c-0.4-0.3-0.6-0.8-0.6-1.4c0-0.4,0.1-0.7,0.4-1.1c0.2-0.3,0.6-0.6,1-0.8c0.4-0.2,1-0.3,1.6-0.3c0.8,0,1.4,0.1,1.9,0.4
		c0.5,0.3,0.8,0.7,1.1,1.2l-1.1,0.8c-0.2-0.4-0.4-0.7-0.7-0.9s-0.7-0.3-1.2-0.3c-0.4,0-0.8,0.1-1,0.3c-0.3,0.2-0.4,0.4-0.4,0.6
		c0,0.3,0.1,0.5,0.4,0.6c0.2,0.1,0.7,0.3,1.4,0.4c1,0.2,1.7,0.4,2.1,0.8c0.4,0.3,0.6,0.8,0.6,1.4c0,0.6-0.3,1.1-0.8,1.5
		c-0.5,0.4-1.3,0.6-2.3,0.6C227.9,57.6,227.2,57.4,226.7,57.2z"/>
	<path class="st1" d="M238.4,56.9c-0.2,0.2-0.5,0.3-0.8,0.4c-0.3,0.1-0.7,0.2-1,0.2c-0.6,0-1.2-0.2-1.6-0.5
		c-0.4-0.3-0.6-0.8-0.6-1.5v-4H233v-1.2h1.3v-1.6l1.5-0.4v2.1h2.5v1.2h-2.5v3.7c0,0.3,0.1,0.6,0.3,0.8s0.4,0.2,0.8,0.2
		c0.4,0,0.8-0.1,1.1-0.5L238.4,56.9z"/>
</g>
<g>
	<path class="st2" d="M76.6,63.7c0,7-3.6,10.5-10.6,10.5H10.6C3.6,74.2,0,70.7,0,63.7V10.5C0,3.5,3.6,0,10.6,0H66
		c7,0,10.6,3.5,10.6,10.5V63.7z"/>
	<path class="st3" d="M39.8,22.1l-9.3,24.7L19.8,15.1c0,0-0.3-1.1-1.6-1.1c0,0-1.1-0.1-1.3,0.9v44.4c0,0,0.1,0.9,1.2,0.9
		c0,0,1.2,0,1.2-1.1V22.5l10.3,28.9c0,0,0.3,0.8,1.1,0.8c0,0,0.8,0,1.1-0.9l8.1-21.7V22.1z"/>
	<path class="st4" d="M41.2,51.6V23c0,0-0.3-4.3,2.9-7c0,0,2.1-2,6.4-2c0,0,4.2-0.2,6.9,2.5c0,0,2.2,1.8,2.4,7v8.2
		c0,1.1-1.2,1.1-1.2,1.1c-1.1,0-1.2-0.9-1.2-0.9v-8.5c-0.6-7.3-6.7-6.7-6.7-6.7c-7,0.1-7.1,6.5-7.1,6.5v28.2c0,0,0.3,6.1,6.9,6
		c0,0,7.2,0.3,6.9-7.7v-8.5c0,0,0.1-0.9,1.2-0.9c0,0,1.2,0,1.2,1.1v8.2c0,0,0.4,5.7-2.4,8.1c0,0-1.8,2.5-6.9,2.5
		c0,0-5.1,0.1-7.3-2.6C43.1,57.5,41.2,55.5,41.2,51.6z"/>
</g>
</svg>
