<?xml version="1.0" encoding="utf-8"?>
<!-- Generator: Adobe Illustrator 26.5.0, SVG Export Plug-In . SVG Version: 6.00 Build 0)  -->
<svg version="1.1" id="Layer_1" xmlns="http://www.w3.org/2000/svg" xmlns:xlink="http://www.w3.org/1999/xlink" x="0px" y="0px"
	 viewBox="0 0 3440 772" style="enable-background:new 0 0 3440 772;" xml:space="preserve">
<style type="text/css">
	.st0{fill:#353535;}
</style>
<g>
	<path class="st0" d="M3440,772c-211.3,0-402.4-7.4-584.3-22.5c-162.8-13.5-314.4-33.1-463.3-59.7
		c-276.3-49.4-498.2-115.6-712.7-179.6c-216.7-64.7-421.4-125.8-682.3-172.4c-140.3-25.1-283.4-43.5-437.4-56.3
		C386.3,267,203.1,260,0,260V0c210.4,0,400.7,7.3,581.7,22.4c162.2,13.5,313.2,33,461.5,59.5c275.4,49.2,496.8,115.3,710.9,179.2
		c217.1,64.8,422.2,126,684,172.8c140.8,25.2,284.4,43.6,439.1,56.5c174.6,14.5,358.6,21.6,562.7,21.6V772z"/>
</g>
</svg>
