<?xml version="1.0" encoding="utf-8"?>
<!-- Generator: Adobe Illustrator 26.5.0, SVG Export Plug-In . SVG Version: 6.00 Build 0)  -->
<svg version="1.1" id="Layer_1" xmlns="http://www.w3.org/2000/svg" xmlns:xlink="http://www.w3.org/1999/xlink" x="0px" y="0px"
	 viewBox="0 0 1440 672" style="enable-background:new 0 0 1440 672;" xml:space="preserve">
<style type="text/css">
	.st0{fill:#353535;}
</style>
<g>
	<path class="st0" d="M1440,672c-92.2,0-175.9-7.7-255.7-23.6c-71.9-14.3-138.9-34.9-204.7-63C859.1,534,764.1,466.3,672.3,400.8
		C583.7,337.7,500,278,395.7,233.5c-55.3-23.6-111.6-41-172.3-53C154.3,166.7,81.2,160,0,160V0c91.8,0,175.1,7.7,254.6,23.5
		C326.3,37.8,393,58.3,458.6,86.3c120.2,51.3,215,118.9,306.6,184.2c88.8,63.3,172.6,123.1,277.3,167.7
		c55.5,23.7,112.1,41.1,173.1,53.2c69.4,13.8,142.8,20.5,224.5,20.5V672z"/>
</g>
</svg>
