<?xml version="1.0" encoding="utf-8"?>
<!-- Generator: Adobe Illustrator 20.1.0, SVG Export Plug-In . SVG Version: 6.00 Build 0)  -->
<svg version="1.1" id="Layer_1" xmlns="http://www.w3.org/2000/svg" xmlns:xlink="http://www.w3.org/1999/xlink" x="0px" y="0px"
	 viewBox="0 0 72.7 96.7" style="enable-background:new 0 0 72.7 96.7;" xml:space="preserve">
<style type="text/css">
	.st0{fill:#FFFFFF;}
</style>
<g>
	<g>
		<path class="st0" d="M60.8,26c-0.4,0-0.8-0.2-1.1-0.5L49.3,13.8c-0.4-0.4-0.5-1.1-0.2-1.6c0.2-0.5,0.8-0.9,1.4-0.9h3.7V1.5
			c0-0.8,0.7-1.5,1.5-1.5H66c0.8,0,1.5,0.7,1.5,1.5v9.8h3.7c0.6,0,1.1,0.3,1.4,0.9c0.2,0.5,0.1,1.2-0.2,1.6L62,25.5
			C61.7,25.8,61.3,26,60.8,26z M53.8,14.3l7,8l7-8H66c-0.8,0-1.5-0.7-1.5-1.5V3h-7.3v9.8c0,0.8-0.7,1.5-1.5,1.5
			C55.7,14.3,53.8,14.3,53.8,14.3z"/>
	</g>
	<path class="st0" d="M59,31.7c-0.2-0.2-0.4-0.5-0.6-0.7L44.8,17.4c-2.2-2.2-6.4-4-9.6-4H6.5C2.9,13.5,0,16.4,0,20v70.2
		c0,3.6,2.9,6.5,6.5,6.5h49.3c3.6,0,6.5-2.9,6.5-6.5V40.6C62.3,37.7,60.9,34,59,31.7z M41.7,20c0-0.6,0.1-0.9,0.1-1
		c0.1,0,0.2,0.1,0.3,0.2c0.2,0.1,0.3,0.3,0.5,0.4l13.5,13.5c0,0,0,0,0,0c0.1,0.1,0.3,0.3,0.4,0.5c0.1,0.2,0.2,0.3,0.2,0.4
		c-0.2,0.1-0.5,0.1-1,0.1H45.2c-1.9,0-3.5-1.6-3.5-3.5V20z M59.3,90.2c0,1.9-1.6,3.5-3.5,3.5H6.5c-1.9,0-3.5-1.6-3.5-3.5V20
		c0-1.9,1.6-3.5,3.5-3.5h28.7c1.2,0,2.7,0.4,4.1,1c-0.3,0.6-0.6,1.5-0.6,2.5v10.6c0,3.6,2.9,6.5,6.5,6.5h10.6c1.1,0,2-0.2,2.5-0.6
		c0.6,1.4,1,2.9,1,4.1V90.2z"/>
	<path class="st0" d="M23.3,73.7c-0.4-0.4-0.9-0.6-1.5-0.8c-0.6-0.2-1.4-0.2-2.5-0.2h-3.6c-0.6,0-1.1,0.1-1.4,0.4
		c-0.3,0.3-0.4,0.7-0.4,1.3v10.7c0,0.6,0.1,1,0.4,1.3c0.3,0.3,0.6,0.4,1,0.4c0.4,0,0.7-0.1,1-0.4c0.3-0.3,0.4-0.7,0.4-1.3v-3.9h2.6
		c1.7,0,3-0.4,3.9-1.1c0.9-0.7,1.3-1.8,1.3-3.2c0-0.7-0.1-1.3-0.3-1.8C24.1,74.5,23.7,74.1,23.3,73.7z M21.4,78.1
		c-0.2,0.3-0.6,0.5-1,0.7c-0.4,0.1-1,0.2-1.7,0.2h-1.9v-4.2h1.9c1.3,0,2.1,0.2,2.5,0.6c0.4,0.4,0.5,0.9,0.5,1.5
		C21.7,77.4,21.6,77.8,21.4,78.1z"/>
	<path class="st0" d="M36.7,73.9c-0.6-0.5-1.2-0.8-1.9-1c-0.7-0.2-1.5-0.3-2.5-0.3h-3.7c-0.6,0-1,0.1-1.3,0.4
		c-0.3,0.3-0.4,0.7-0.4,1.3v10.2c0,0.4,0,0.8,0.1,1.1c0.1,0.3,0.2,0.5,0.5,0.7c0.3,0.2,0.6,0.2,1.2,0.2h3.7c0.6,0,1.2,0,1.7-0.1
		c0.5-0.1,1-0.2,1.4-0.4c0.4-0.2,0.8-0.5,1.2-0.8c0.5-0.4,0.9-0.9,1.2-1.5c0.3-0.6,0.5-1.2,0.7-1.9c0.1-0.7,0.2-1.4,0.2-2.3
		C38.8,77,38.1,75.2,36.7,73.9z M34.6,83.6c-0.2,0.2-0.5,0.3-0.7,0.4c-0.3,0.1-0.6,0.2-0.8,0.2c-0.3,0-0.6,0-1.1,0h-2.1v-9.4h1.9
		c0.9,0,1.6,0.1,2.2,0.3c0.6,0.2,1.1,0.6,1.5,1.3c0.4,0.7,0.6,1.7,0.6,3.1C36,81.5,35.5,82.9,34.6,83.6z"/>
	<path class="st0" d="M49.6,72.7H43c-0.4,0-0.7,0.1-1,0.2c-0.3,0.1-0.4,0.3-0.6,0.6c-0.1,0.3-0.2,0.6-0.2,1v10.7
		c0,0.6,0.1,1,0.4,1.3s0.6,0.4,1,0.4c0.4,0,0.7-0.1,1-0.4c0.3-0.3,0.4-0.7,0.4-1.3v-4.6h4.6c0.4,0,0.7-0.1,1-0.3
		c0.2-0.2,0.3-0.4,0.3-0.8c0-0.3-0.1-0.6-0.3-0.8c-0.2-0.2-0.5-0.3-1-0.3h-4.6v-3.5h5.5c0.4,0,0.8-0.1,1-0.3
		c0.2-0.2,0.3-0.5,0.3-0.8c0-0.3-0.1-0.6-0.3-0.8C50.4,72.8,50,72.7,49.6,72.7z"/>
	<g>
		<path class="st0" d="M12,68.1c-1.5,0-2.6-0.7-3.2-2C8,64,9.2,61.2,12.2,58.3c2.3-2.3,5.6-4.1,9.7-5.6c2.2-4,4.2-8.4,5.6-12.1
			c-3.1-4.8-3.7-10.8-2.6-14.2c0.7-2.2,1.9-3,2.8-3.3c1.3-0.4,2.5-0.1,3.4,0.9c1.3,1.4,1.8,4.4,1.5,8.9c-0.1,1.8-0.7,4.2-1.8,7.2
			c0,0.1,0.1,0.1,0.1,0.2c0.7,0.9,1.5,1.8,2.2,2.8c1.7,2.1,3.6,4.5,5.5,6.6c0.6,0,1.1,0,1.6,0c6.8,0,11.4,1.4,12.9,4
			c0.6,1.1,0.6,2.3,0,3.4c-0.8,1.4-2.6,2.3-4.8,2.3h0c-0.5,0-1.1-0.1-1.6-0.2c-2.7-0.5-5.7-2.6-9.4-6.5c-0.9,0.1-1.9,0.1-2.9,0.2
			c-2.2,0.2-6.3,0.8-10.6,2.1c-1.8,3.3-5.7,9.9-8.7,11.8C14.2,67.7,13.1,68.1,12,68.1z M19.5,56.9c-2.1,1-3.8,2.2-5.2,3.5
			c-2.6,2.6-2.8,4.2-2.7,4.6c0,0.1,0.2,0.1,0.4,0.1c0.4,0,1-0.2,1.6-0.6C15,63.6,17.1,60.8,19.5,56.9z M41.6,52.8
			c2.3,2.1,4.2,3.3,5.8,3.6c0.4,0.1,0.7,0.1,1.1,0.1c0,0,0,0,0,0c1.2,0,2-0.4,2.2-0.8c0-0.1,0.1-0.2,0-0.4
			C50.1,54.4,47.7,53,41.6,52.8z M29.6,43.4c-1,2.6-2.3,5.4-3.7,8.1c3.4-0.9,6.6-1.2,8.4-1.4c0.2,0,0.5,0,0.7-0.1
			c-1.4-1.7-2.8-3.4-4.1-5C30.4,44.5,30,43.9,29.6,43.4z M28.8,26c0,0-0.1,0-0.1,0c-0.3,0.1-0.7,0.6-0.9,1.4
			c-0.7,2.2-0.4,5.9,1.1,9.3c0.5-1.6,0.8-3,0.8-4c0.4-5-0.5-6.4-0.7-6.6C28.8,26,28.8,26,28.8,26z"/>
	</g>
</g>
</svg>
