<?xml version="1.0" encoding="utf-8"?>
<!-- Generator: Adobe Illustrator 20.1.0, SVG Export Plug-In . SVG Version: 6.00 Build 0)  -->
<svg version="1.1" id="Layer_1" xmlns="http://www.w3.org/2000/svg" xmlns:xlink="http://www.w3.org/1999/xlink" x="0px" y="0px"
	 viewBox="0 0 84.6 84.6" style="enable-background:new 0 0 84.6 84.6;" xml:space="preserve">
<style type="text/css">
	.st0{fill:#4F4F4F;}
</style>
<g>
	<path class="st0" d="M45.2,57.1c-4,1.8-8.1,3.7-12.2,5.5c1.6,5.5,0.8,10.5-2.5,15.1c-2.5,3.4-5.8,5.5-9.9,6.4
		c-7.9,1.8-16.2-2.5-19.2-10C-1.9,66.4,1,57.7,8.1,53.3c7-4.3,17.6-3.3,23.3,5.6c4-1.8,8.1-3.7,12.2-5.5c-0.9-2.8-1.4-5.6-1.1-8.5
		c0.3-2.9,1.1-5.6,2.5-8.2C37.2,31.5,29.6,26.4,22,21.3c-0.2,0.1-0.3,0.2-0.5,0.4c-3.6,3.3-7.8,4.5-12.5,3c-4.7-1.5-7.6-4.8-8.7-9.6
		c-1.5-7,3.5-14.1,10.6-15c7.8-1,14.5,4.9,14.4,12.7c0,1.5-0.5,3-0.9,4.5c-0.1,0.4-0.1,0.6,0.2,0.9c7.5,5,14.9,9.9,22.4,14.9
		c0,0,0.1,0,0.1,0c4.6-5.3,10.5-8.1,17.6-7.7c6.1,0.4,11.1,3,15,7.7c7.4,9,6.1,22.3-2.9,29.7C67.4,70.7,52.1,68.9,45.2,57.1z
		 M46.5,46.5c-0.1,9.3,7.5,16.9,16.8,17c9.3,0.1,17-7.5,17.1-16.6c0.1-9.5-7.4-17.3-16.6-17.3C54.2,29.5,46.6,37,46.5,46.5z
		 M29.6,67.7c0-7.1-5.7-12.7-12.9-12.7c-6.8,0-12.6,5.7-12.6,12.6c0,7.2,5.6,12.9,12.8,12.9C24,80.4,29.7,74.7,29.6,67.7z
		 M12.7,21.1c4.7,0,8.5-3.8,8.5-8.5c0-4.7-3.8-8.5-8.4-8.5c-4.7,0-8.5,3.8-8.5,8.5C4.2,17.3,8,21.1,12.7,21.1z"/>
</g>
</svg>
