<svg id="Layer_1" data-name="Layer 1" xmlns="http://www.w3.org/2000/svg" viewBox="0 0 311.72 79.58"><defs><style>.cls-1{fill:#b0b7bc;}.cls-2{fill:#deb408;}.cls-3{fill:#231f20;}</style></defs><title>Sandy Spring Bank with tag</title><path class="cls-1" d="M51.88,30.75s-11.5,5.71-11.29,24C40.78,71.36,30.08,79,30.08,79c4.82-.14,13.29-.41,17.81-3.31a18.3,18.3,0,0,0,8.28-11.89c1-5.67-1.12-10.33-6.27-12.08a13,13,0,0,0,7.23-9.53c1.12-6-2.22-10-5.25-11.4Z" transform="translate(-6.14 -29.15)"/><path class="cls-2" d="M6.15,73.06V47s-1-17.84,15.2-17.84H27.9s-6.49,5.64-6.27,19.93C21.87,65.32,13.3,72.54,6.15,73.06Z" transform="translate(-6.14 -29.15)"/><path class="cls-3" d="M6.15,78.08v.84h14.5c6-2.72,14.92-7.11,14.92-24.82C35.57,36.57,46,29.18,46,29.18l-10.74,0s-9.09,4-8.78,22.27C26.83,72.5,11.31,78.22,6.15,78.08Z" transform="translate(-6.14 -29.15)"/><path class="cls-3" d="M71.57,72.46c-.09,4.48,3.14,5.85,7.1,5.85,2.29,0,5.76-1.24,5.76-4.41C84.43,71.43,82,70.45,80,70L75.1,68.78c-2.56-.64-4.9-1.86-4.9-5.24,0-2.14,1.37-6.13,7.49-6.13,4.3,0,8.08,2.32,8,6.77H83.67c-.12-3.33-2.87-5-5.94-5-2.84,0-5.46,1.09-5.46,4.32,0,2,1.52,2.9,3.29,3.33l5.3,1.31c3.08.82,5.64,2.16,5.64,5.73,0,1.49-.61,6.21-8.32,6.21-5.15,0-8.93-2.31-8.68-7.62Z" transform="translate(-6.14 -29.15)"/><path class="cls-3" d="M89.24,68.71c.18-3.68,2.77-5.27,6.37-5.27,2.77,0,5.79.86,5.79,5.06v8.35A1,1,0,0,0,102.53,78a1.84,1.84,0,0,0,.61-.12V79.5a5.33,5.33,0,0,1-1.25.13c-2,0-2.26-1.1-2.26-2.75h-.06a6,6,0,0,1-5.73,3.2c-2.89,0-5.27-1.43-5.27-4.6,0-4.42,4.3-4.57,8.44-5.06,1.59-.18,2.47-.39,2.47-2.13,0-2.59-1.86-3.23-4.11-3.23s-4.15,1.1-4.21,3.65ZM99.48,71h-.06c-.24.46-1.1.61-1.62.7-3.26.58-7.31.55-7.31,3.63A3.28,3.28,0,0,0,94,78.47c2.92,0,5.51-1.86,5.48-4.94Z" transform="translate(-6.14 -29.15)"/><path class="cls-3" d="M105.21,63.9h1.92v2.71h.06a5.33,5.33,0,0,1,5-3.17c4.42,0,5.76,2.32,5.76,6.07V79.63h-1.92V69.81c0-2.71-.89-4.75-4-4.75s-4.87,2.32-4.93,5.39v9.18h-1.92Z" transform="translate(-6.14 -29.15)"/><path class="cls-3" d="M135.44,79.63h-1.77v-3h-.06A6.22,6.22,0,0,1,128,80.08c-4.78,0-7.07-3.87-7.07-8.32s2.29-8.32,7.07-8.32a5.62,5.62,0,0,1,5.46,3.45h.06v-9h1.92ZM128,78.47c4.08,0,5.52-3.45,5.52-6.71s-1.44-6.7-5.52-6.7c-3.66,0-5.15,3.44-5.15,6.7S124.34,78.47,128,78.47Z" transform="translate(-6.14 -29.15)"/><path class="cls-3" d="M137.32,63.9h2l5.18,13.41,4.85-13.41h1.92L144.48,82c-1.09,2.65-1.73,3.42-4.14,3.42a4.59,4.59,0,0,1-1.46-.16V83.68a6.66,6.66,0,0,0,1.31.15c1.7,0,2.1-1,2.74-2.47l.67-1.8Z" transform="translate(-6.14 -29.15)"/><path class="cls-3" d="M161.18,72.46c-.09,4.48,3.14,5.85,7.1,5.85,2.29,0,5.76-1.24,5.76-4.41,0-2.47-2.47-3.45-4.48-3.94l-4.84-1.18c-2.56-.64-4.91-1.86-4.91-5.24,0-2.14,1.37-6.13,7.5-6.13,4.29,0,8.07,2.32,8,6.77h-2.07c-.12-3.33-2.86-5-5.94-5-2.84,0-5.46,1.09-5.46,4.32,0,2,1.53,2.9,3.29,3.33l5.31,1.31c3.08.82,5.63,2.16,5.63,5.73,0,1.49-.61,6.21-8.32,6.21-5.15,0-8.92-2.31-8.68-7.62Z" transform="translate(-6.14 -29.15)"/><path class="cls-3" d="M179,63.9h1.76v3h.07a5.87,5.87,0,0,1,5.6-3.45c4.79,0,7.07,3.87,7.07,8.32s-2.28,8.32-7.07,8.32A5.6,5.6,0,0,1,181,76.64H181v8.81H179Zm7.43,1.16c-4.23,0-5.51,3.14-5.51,6.7,0,3.26,1.43,6.71,5.51,6.71,3.66,0,5.15-3.45,5.15-6.71S190.13,65.06,186.47,65.06Z" transform="translate(-6.14 -29.15)"/><path class="cls-3" d="M196.53,63.9h1.76v3.69h.07a5.8,5.8,0,0,1,5.94-3.9v1.92a5.41,5.41,0,0,0-5.85,5.64v8.38h-1.92Z" transform="translate(-6.14 -29.15)"/><path class="cls-3" d="M206.16,57.87h1.91V61h-1.91Zm0,6h1.91V79.63h-1.91Z" transform="translate(-6.14 -29.15)"/><path class="cls-3" d="M211.73,63.9h1.92v2.71h.06a5.34,5.34,0,0,1,5-3.17c4.42,0,5.76,2.32,5.76,6.07V79.63h-1.92V69.81c0-2.71-.88-4.75-4-4.75s-4.88,2.32-4.94,5.39v9.18h-1.92Z" transform="translate(-6.14 -29.15)"/><path class="cls-3" d="M241.41,78.35c0,4.69-1.83,7.55-7,7.55-3.14,0-6.25-1.4-6.52-4.75h1.92c.43,2.32,2.47,3.14,4.6,3.14,3.54,0,5.06-2.1,5.06-5.94V76.21h-.06a5.44,5.44,0,0,1-5,3.23c-5,0-7.1-3.59-7.1-8.07s2.56-7.93,7.1-7.93a5.54,5.54,0,0,1,5,3.17h.06V63.9h1.92Zm-1.92-6.77c0-3.08-1.43-6.52-5.06-6.52s-5.18,3.26-5.18,6.52,1.65,6.25,5.18,6.25C237.75,77.83,239.49,74.78,239.49,71.58Z" transform="translate(-6.14 -29.15)"/><path class="cls-2" d="M252.07,57.87h9.21c3.65,0,7,1.28,7,5.33a5,5,0,0,1-3.78,4.88v.06a5.1,5.1,0,0,1,4.6,5.3c0,2.07-.73,6.19-7.8,6.19h-9.21Zm2.08,9.54h7.13c3.32,0,4.9-1.65,4.9-3.69,0-2.71-1.67-4.09-4.9-4.09h-7.13Zm0,10.45h7.13c3.08,0,5.73-1,5.73-4.48,0-2.77-2.11-4.21-5.73-4.21h-7.13Z" transform="translate(-6.14 -29.15)"/><path class="cls-2" d="M271.85,68.71c.18-3.68,2.77-5.27,6.37-5.27,2.77,0,5.79.86,5.79,5.06v8.35A1,1,0,0,0,285.14,78a1.89,1.89,0,0,0,.61-.12V79.5a5.39,5.39,0,0,1-1.25.13c-2,0-2.26-1.1-2.26-2.75h-.06a6,6,0,0,1-5.73,3.2c-2.9,0-5.27-1.43-5.27-4.6,0-4.42,4.29-4.57,8.44-5.06,1.58-.18,2.47-.39,2.47-2.13,0-2.59-1.86-3.23-4.12-3.23s-4.14,1.1-4.2,3.65ZM282.09,71H282c-.25.46-1.1.61-1.62.7-3.26.58-7.31.55-7.31,3.63a3.27,3.27,0,0,0,3.5,3.11c2.93,0,5.52-1.86,5.49-4.94Z" transform="translate(-6.14 -29.15)"/><path class="cls-2" d="M287.81,63.9h1.92v2.71h.07a5.32,5.32,0,0,1,5-3.17c4.42,0,5.76,2.32,5.76,6.07V79.63h-1.92V69.81c0-2.71-.88-4.75-4-4.75s-4.87,2.32-4.94,5.39v9.18h-1.92Z" transform="translate(-6.14 -29.15)"/><path class="cls-2" d="M304.21,57.87h1.92V71.52l8.71-7.62h2.56l-6.7,5.82,7.16,9.91h-2.41l-6.21-8.57-3.11,2.59v6h-1.92Z" transform="translate(-6.14 -29.15)"/><path class="cls-3" d="M168.37,96v1.41h-6.59v4h5.78v1.41h-5.78v5.77H160.1V96Z" transform="translate(-6.14 -29.15)"/><path class="cls-3" d="M171.33,99.42v1.93h0a4,4,0,0,1,1.34-1.64,3.35,3.35,0,0,1,2-.5v1.59a4.18,4.18,0,0,0-1.54.25,2.37,2.37,0,0,0-1,.72,2.94,2.94,0,0,0-.56,1.15,6.19,6.19,0,0,0-.18,1.56v4.06h-1.5V99.42Z" transform="translate(-6.14 -29.15)"/><path class="cls-3" d="M175.32,102.11a4.21,4.21,0,0,1,.84-1.51,4,4,0,0,1,1.4-1,5.09,5.09,0,0,1,3.81,0,4.08,4.08,0,0,1,1.39,1,4.21,4.21,0,0,1,.84,1.51,6,6,0,0,1,.28,1.88,6,6,0,0,1-.28,1.87,4.29,4.29,0,0,1-.84,1.51,4,4,0,0,1-1.39,1,5.22,5.22,0,0,1-3.81,0,4,4,0,0,1-1.4-1,4.29,4.29,0,0,1-.84-1.51A6,6,0,0,1,175,104,6,6,0,0,1,175.32,102.11Zm1.52,3.35a3.14,3.14,0,0,0,.61,1.08,2.69,2.69,0,0,0,.91.66,2.75,2.75,0,0,0,2.2,0,2.69,2.69,0,0,0,.91-.66,3.14,3.14,0,0,0,.61-1.08,5,5,0,0,0,0-2.94,3.29,3.29,0,0,0-.61-1.09,2.68,2.68,0,0,0-4,0,3.29,3.29,0,0,0-.61,1.09,5,5,0,0,0,0,2.94Z" transform="translate(-6.14 -29.15)"/><path class="cls-3" d="M187.06,99.42v1.34h0A3.32,3.32,0,0,1,190,99.21a3.38,3.38,0,0,1,1.53.35,2,2,0,0,1,1,1.2,3.15,3.15,0,0,1,1.21-1.14,3.39,3.39,0,0,1,1.65-.41,4.79,4.79,0,0,1,1.24.15,2.57,2.57,0,0,1,1,.47,2.15,2.15,0,0,1,.62.82,3.11,3.11,0,0,1,.22,1.21v6.68h-1.5v-6a4.94,4.94,0,0,0-.07-.79,1.61,1.61,0,0,0-.27-.64,1.28,1.28,0,0,0-.53-.44,2.25,2.25,0,0,0-.89-.16,2.38,2.38,0,0,0-1.75.64,2.29,2.29,0,0,0-.63,1.69v5.68h-1.5v-6a4.12,4.12,0,0,0-.08-.81,1.61,1.61,0,0,0-.27-.64,1.37,1.37,0,0,0-.52-.43,2,2,0,0,0-.84-.15,2.19,2.19,0,0,0-1.12.27,2.66,2.66,0,0,0-.76.63,2.78,2.78,0,0,0-.42.77,2.06,2.06,0,0,0-.13.66v5.68h-1.5V99.42Z" transform="translate(-6.14 -29.15)"/><path class="cls-3" d="M207.08,96v4.81h0a1.88,1.88,0,0,1,.49-.71,3,3,0,0,1,.72-.48,3.67,3.67,0,0,1,.83-.27,4,4,0,0,1,.83-.09,4,4,0,0,1,1.5.25,2.39,2.39,0,0,1,1,.69,2.47,2.47,0,0,1,.52,1,5.55,5.55,0,0,1,.15,1.34v6h-1.5v-6.17a1.8,1.8,0,0,0-.49-1.34,1.84,1.84,0,0,0-1.36-.5,3,3,0,0,0-1.19.22,2.31,2.31,0,0,0-.84.6,2.55,2.55,0,0,0-.5.9,3.78,3.78,0,0,0-.17,1.14v5.15h-1.5V96Z" transform="translate(-6.14 -29.15)"/><path class="cls-3" d="M221.84,108a4.18,4.18,0,0,1-2.58.77,4.76,4.76,0,0,1-1.89-.35,3.76,3.76,0,0,1-1.35-1,4.24,4.24,0,0,1-.82-1.51,7.72,7.72,0,0,1-.31-1.93,5.53,5.53,0,0,1,.32-1.9,4.59,4.59,0,0,1,.89-1.5,4.08,4.08,0,0,1,1.36-1,4.18,4.18,0,0,1,1.71-.35,3.76,3.76,0,0,1,2,.5,4,4,0,0,1,1.29,1.28,5.15,5.15,0,0,1,.67,1.69,7.72,7.72,0,0,1,.15,1.75h-6.82a3.57,3.57,0,0,0,.14,1.14,2.43,2.43,0,0,0,.51,1,2.54,2.54,0,0,0,.9.66,3.16,3.16,0,0,0,1.29.25,2.64,2.64,0,0,0,1.56-.44,2.17,2.17,0,0,0,.8-1.34h1.48A3.66,3.66,0,0,1,221.84,108Zm-.36-5.86a2.75,2.75,0,0,0-.55-.82,2.66,2.66,0,0,0-2.89-.54,2.38,2.38,0,0,0-.8.55,2.63,2.63,0,0,0-.53.82,3,3,0,0,0-.23,1h5.23A3.16,3.16,0,0,0,221.48,102.1Z" transform="translate(-6.14 -29.15)"/><path class="cls-3" d="M226.21,99.42v1.93h0a4.08,4.08,0,0,1,1.34-1.64,3.35,3.35,0,0,1,2-.5v1.59a4.09,4.09,0,0,0-1.53.25,2.37,2.37,0,0,0-1,.72,3,3,0,0,0-.57,1.15,6.71,6.71,0,0,0-.17,1.56v4.06h-1.5V99.42Z" transform="translate(-6.14 -29.15)"/><path class="cls-3" d="M236.86,108a4.22,4.22,0,0,1-2.58.77,4.72,4.72,0,0,1-1.89-.35,3.76,3.76,0,0,1-1.35-1,4.09,4.09,0,0,1-.82-1.51,7.29,7.29,0,0,1-.31-1.93,5.53,5.53,0,0,1,.32-1.9,4.59,4.59,0,0,1,.89-1.5,4.14,4.14,0,0,1,1.35-1,4.26,4.26,0,0,1,1.72-.35,3.78,3.78,0,0,1,2,.5A4,4,0,0,1,237.5,101a5.38,5.38,0,0,1,.67,1.69,7.72,7.72,0,0,1,.15,1.75H231.5a3.31,3.31,0,0,0,.14,1.14,2.48,2.48,0,0,0,1.41,1.61,3.14,3.14,0,0,0,1.28.25,2.6,2.6,0,0,0,1.56-.44,2.14,2.14,0,0,0,.81-1.34h1.48A3.66,3.66,0,0,1,236.86,108Zm-.37-5.86a2.54,2.54,0,0,0-.54-.82,2.5,2.5,0,0,0-.81-.54,2.68,2.68,0,0,0-2.08,0,2.42,2.42,0,0,0-.81.55,2.82,2.82,0,0,0-.53.82,3.31,3.31,0,0,0-.22,1h5.23A2.93,2.93,0,0,0,236.49,102.1Z" transform="translate(-6.14 -29.15)"/><path class="cls-3" d="M242.16,106.58v2h-2v-2Z" transform="translate(-6.14 -29.15)"/><path class="cls-3" d="M258.18,96v1.41h-6.59v4h5.78v1.41h-5.78v5.77h-1.67V96Z" transform="translate(-6.14 -29.15)"/><path class="cls-3" d="M259.58,102.11a4.21,4.21,0,0,1,.84-1.51,4,4,0,0,1,1.4-1,5.09,5.09,0,0,1,3.81,0,4.08,4.08,0,0,1,1.39,1,4.36,4.36,0,0,1,.84,1.51,6,6,0,0,1,.28,1.88,6,6,0,0,1-.28,1.87,4.46,4.46,0,0,1-.84,1.51,4,4,0,0,1-1.39,1,5.22,5.22,0,0,1-3.81,0,4,4,0,0,1-1.4-1,4.29,4.29,0,0,1-.84-1.51,6,6,0,0,1-.29-1.87A6,6,0,0,1,259.58,102.11Zm1.52,3.35a3.14,3.14,0,0,0,.61,1.08,2.69,2.69,0,0,0,2,.89,2.74,2.74,0,0,0,1.1-.23,2.69,2.69,0,0,0,.91-.66,3.14,3.14,0,0,0,.61-1.08,5,5,0,0,0,0-2.94,3.29,3.29,0,0,0-.61-1.09,2.68,2.68,0,0,0-4,0,3.29,3.29,0,0,0-.61,1.09,5,5,0,0,0,0,2.94Z" transform="translate(-6.14 -29.15)"/><path class="cls-3" d="M271.26,99.42v1.93h0a4,4,0,0,1,1.34-1.64,3.35,3.35,0,0,1,2-.5v1.59a4.18,4.18,0,0,0-1.54.25,2.37,2.37,0,0,0-1,.72,2.94,2.94,0,0,0-.56,1.15,6.19,6.19,0,0,0-.18,1.56v4.06h-1.5V99.42Z" transform="translate(-6.14 -29.15)"/><path class="cls-3" d="M282.18,96v4.81h0a2,2,0,0,1,.49-.71,3.23,3.23,0,0,1,.72-.48,3.84,3.84,0,0,1,.83-.27,4,4,0,0,1,.83-.09,4,4,0,0,1,1.5.25,2.39,2.39,0,0,1,1,.69,2.47,2.47,0,0,1,.52,1,5.55,5.55,0,0,1,.15,1.34v6h-1.5v-6.17a1.8,1.8,0,0,0-.49-1.34,1.84,1.84,0,0,0-1.36-.5,3.08,3.08,0,0,0-1.19.22,2.19,2.19,0,0,0-.83.6,2.43,2.43,0,0,0-.51.9,3.79,3.79,0,0,0-.16,1.14v5.15h-1.5V96Z" transform="translate(-6.14 -29.15)"/><path class="cls-3" d="M296.93,108a4.17,4.17,0,0,1-2.57.77,4.81,4.81,0,0,1-1.9-.35,3.94,3.94,0,0,1-1.35-1,4.24,4.24,0,0,1-.82-1.51A7.72,7.72,0,0,1,290,104a5.53,5.53,0,0,1,.32-1.9,4.59,4.59,0,0,1,.89-1.5,4,4,0,0,1,3.08-1.34,3.8,3.8,0,0,1,2,.5,4.11,4.11,0,0,1,1.28,1.28,4.94,4.94,0,0,1,.67,1.69,6.72,6.72,0,0,1,.15,1.75h-6.82a3.88,3.88,0,0,0,.14,1.14,2.73,2.73,0,0,0,.51,1,2.63,2.63,0,0,0,.9.66,3.19,3.19,0,0,0,1.29.25A2.64,2.64,0,0,0,296,107a2.17,2.17,0,0,0,.8-1.34h1.48A3.66,3.66,0,0,1,296.93,108Zm-.36-5.86a2.75,2.75,0,0,0-.55-.82,2.5,2.5,0,0,0-.81-.54,2.46,2.46,0,0,0-1-.21,2.52,2.52,0,0,0-1.05.21,2.38,2.38,0,0,0-.8.55,2.82,2.82,0,0,0-.53.82,3,3,0,0,0-.23,1h5.24A3.47,3.47,0,0,0,296.57,102.1Z" transform="translate(-6.14 -29.15)"/><path class="cls-3" d="M301.3,99.42v1.93h0a4,4,0,0,1,1.34-1.64,3.31,3.31,0,0,1,2-.5v1.59a4.18,4.18,0,0,0-1.54.25,2.37,2.37,0,0,0-1,.72,3,3,0,0,0-.57,1.15,6.71,6.71,0,0,0-.17,1.56v4.06h-1.5V99.42Z" transform="translate(-6.14 -29.15)"/><path class="cls-3" d="M312,108a4.18,4.18,0,0,1-2.58.77,4.76,4.76,0,0,1-1.89-.35,3.85,3.85,0,0,1-1.35-1,4.24,4.24,0,0,1-.82-1.51A7.72,7.72,0,0,1,305,104a5.53,5.53,0,0,1,.32-1.9,4.59,4.59,0,0,1,.89-1.5,4.08,4.08,0,0,1,1.36-1,4.2,4.2,0,0,1,1.72-.35,3.74,3.74,0,0,1,2,.5,4,4,0,0,1,1.29,1.28,5.15,5.15,0,0,1,.67,1.69,7.72,7.72,0,0,1,.15,1.75h-6.82a3.57,3.57,0,0,0,.14,1.14,2.43,2.43,0,0,0,.51,1,2.63,2.63,0,0,0,.9.66,3.16,3.16,0,0,0,1.29.25A2.64,2.64,0,0,0,311,107a2.17,2.17,0,0,0,.8-1.34h1.48A3.66,3.66,0,0,1,312,108Zm-.36-5.86a2.75,2.75,0,0,0-.55-.82,2.66,2.66,0,0,0-2.89-.54,2.38,2.38,0,0,0-.8.55,2.63,2.63,0,0,0-.53.82,3,3,0,0,0-.23,1h5.23A3.16,3.16,0,0,0,311.59,102.1Z" transform="translate(-6.14 -29.15)"/><path class="cls-3" d="M317.25,106.58v2H315.3v-2Z" transform="translate(-6.14 -29.15)"/></svg>